<svg xmlns="http://www.w3.org/2000/svg" xmlns:xlink="http://www.w3.org/1999/xlink" id="Layer_1" x="0" y="0" enable-background="new 0 0 150 150" version="1.1" viewBox="0 0 150 150" xml:space="preserve"><style type="text/css">.st0{fill:none;stroke:#fff;stroke-width:2;stroke-linecap:round;stroke-linejoin:round;stroke-miterlimit:10}</style><g><g><path d="M100.5,128.1V95.2c0,0-0.5-1.2-1.7-2.3" class="st0"/><path d="M103.6,105.8" class="st0"/><line x1="122.5" x2="122.5" y1="124.9" y2="110.6" class="st0"/><path d="M77.4,128.1c0,2.1,5.2,3.8,11.5,3.8c6.4,0,11.5-1.7,11.5-3.8" class="st0"/><path d="M77.4,122.4c0,2.1,5.2,3.8,11.5,3.8c6.4,0,11.5-1.7,11.5-3.8" class="st0"/><path d="M77.4,116.8c0,2.1,5.2,3.8,11.5,3.8c6.4,0,11.5-1.7,11.5-3.8" class="st0"/><path d="M77.4,111.2c0,2.1,5.2,3.8,11.5,3.8c6.4,0,11.5-1.7,11.5-3.8" class="st0"/><path d="M77.4,105.6c0,2.1,5.2,3.8,11.5,3.8c6.4,0,11.5-1.7,11.5-3.8" class="st0"/><path d="M77.4,100c0,2.1,5.2,3.8,11.5,3.8c6.4,0,11.5-1.7,11.5-3.8" class="st0"/><path d="M81,87.8c1.6,0.7,3.4,0.9,5.1,0.9" class="st0"/><path d="M75.7,88.2c0,2.1,5.2,3.8,11.5,3.8c6.4,0,11.5-1.7,11.5-3.8s-5.2-3.8-11.5-3.8C80.9,84.4,75.7,86.1,75.7,88.2 z" class="st0"/><line x1="77.4" x2="77.4" y1="96.3" y2="128.1" class="st0"/><path d="M101.5,102.3c0,2.1,5.2,3.8,11.5,3.8c6.4,0,11.5-1.7,11.5-3.8c0-2.1-5.2-3.8-11.5-3.8 S101.5,100.2,101.5,102.3z" class="st0"/><path d="M75.7,88.2v6.2c0,2.1,5.2,3.8,11.5,3.8c6.4,0,11.5-1.7,11.5-3.8v-5.9" class="st0"/><path d="M101.5,102.3v6.2c0,2.1,5.2,3.8,11.5,3.8c6.4,0,11.5-1.7,11.5-3.8v-6.2" class="st0"/><path d="M119.4,101.9c0,0-1.9,1.3-5.4,1" class="st0"/><path d="M122.5,119.3c0,2.1-5.2,3.8-11.5,3.8c-4.7,0-8.7-0.9-10.5-2.2" class="st0"/><path d="M122.5,124.9c0,2.1-5.2,3.8-11.5,3.8c-4.7,0-8.7-0.9-10.5-2.2" class="st0"/><path d="M122.5,113.5c0,2.1-5.2,3.8-11.5,3.8c-4.7,0-8.7-0.9-10.5-2.2" class="st0"/></g><line x1="115.4" x2="112" y1="70.8" y2="72.9" class="st0"/><line x1="111.6" x2="109" y1="48.8" y2="51.8" class="st0"/><g><path d="M76.5,96.3c-4,6-10.8,9.9-18.5,9.9c-12.3,0-22.2-10-22.2-22.2s10-22.2,22.2-22.2s22.2,10,22.2,22.2" class="st0"/><g><path d="M53.3,90.9c1,1.4,2.6,2.3,4.5,2.3c3.1,0,5.5-2.5,5.5-5.5c0-3.1-2.5-5.5-5.5-5.5h-0.1c-2.4,0-4.3-1.9-4.3-4.3 s1.9-4.3,4.3-4.3c1.4,0,2.7,0.7,3.5,1.8" class="st0"/><line x1="57.7" x2="57.7" y1="73.5" y2="71.1" class="st0"/><line x1="57.7" x2="57.7" y1="95.5" y2="93.2" class="st0"/></g><path d="M40.8,22.4L40.8,22.4c10.8-5.7,23.7-5.7,34.4,0l0,0l-7,14.4H47.8L40.8,22.4z" class="st0"/><path d="M92.8,84.9v-9c0-15.6-10.4-28.8-24.6-33.2H47.8C33.7,47,23.3,60.3,23.3,75.9v34.4c0,9.3,7.6,16.9,16.9,16.9 h35.7c0.5,0,1,0,1.5-0.1" class="st0"/><g><line x1="47.8" x2="47.8" y1="42.7" y2="37.1" class="st0"/><line x1="68.3" x2="68.3" y1="37.1" y2="42.7" class="st0"/></g><line x1="61.4" x2="64.3" y1="36.4" y2="29" class="st0"/><line x1="54.6" x2="51.8" y1="36.4" y2="29" class="st0"/><g><line x1="69.5" x2="70.8" y1="84.4" y2="84.4" class="st0"/><line x1="47.3" x2="48.7" y1="84.4" y2="84.4" class="st0"/></g></g><polyline points="116.6 62.8 124.8 53.1 105.2 36.3 87.3 57.2" class="st0"/><path d="M113.8,58.5l2.1-2.4c-1-1.1-1.1-2.7-0.3-3.9l-7.9-6.8c-1,1-2.7,1.2-3.9,0.3L89.9,61.9" class="st0"/><path d="M98.9,90.7L117.4,79c-0.7-1.3-0.3-2.9,0.9-3.8l-5.6-8.8c-1.3,0.7-2.9,0.3-3.8-0.8l-16,10.2" class="st0"/><polyline points="92.3 70.2 112.9 57.1 126.7 78.9 100.8 95.3" class="st0"/><polyline points="83.6 52.4 94.1 39.5 98.8 43.8" class="st0"/></g></svg>