<svg xmlns="http://www.w3.org/2000/svg" xmlns:xlink="http://www.w3.org/1999/xlink" id="Layer_1" x="0" y="0" enable-background="new 0 0 150 150" version="1.1" viewBox="0 0 150 150" xml:space="preserve"><style type="text/css">.st0{fill:none;stroke:#000;stroke-width:2;stroke-linecap:round;stroke-linejoin:round;stroke-miterlimit:10}</style><g><polyline points="125.2 53.8 125.2 120.7 24.8 120.7 24.8 53.8" class="st0"/><path d="M47.1,53.8v29.8l3.2-2.6c1.1-0.9,2.7-0.9,3.7,0l1,0.8c1.2,1,3,0.9,4-0.3l0,0c1.1-1.1,2.8-1.3,4-0.3l2.9,2.3 V53.8" class="st0"/><line x1="66.3" x2="46.8" y1="107" y2="107" class="st0"/><line x1="66.3" x2="60" y1="100.6" y2="100.6" class="st0"/><line x1="54.9" x2="46.8" y1="100.6" y2="100.6" class="st0"/><line x1="51.8" x2="51.8" y1="53.8" y2="71.2" class="st0"/><line x1="90.8" x2="90.8" y1="53.8" y2="98.5" class="st0"/><line x1="90.8" x2="90.8" y1="107.7" y2="120.7" class="st0"/><polyline points="80.8 53.8 24.9 53.8 13.4 29.3 79.3 29.3 90.7 53.8 111.2 53.8" class="st0"/><line x1="99.9" x2="81.5" y1="33.9" y2="33.9" class="st0"/><line x1="104.4" x2="124.9" y1="114.3" y2="114.3" class="st0"/><line x1="75" x2="25.2" y1="35.6" y2="35.6" class="st0"/><line x1="133.8" x2="106.6" y1="35.6" y2="35.6" class="st0"/><path d="M117,53.8c0,0,7.1,0,8.2,0l11.5-24.5h-34.4L90.8,53.8" class="st0"/></g></svg>