<svg xmlns="http://www.w3.org/2000/svg" xmlns:xlink="http://www.w3.org/1999/xlink" id="Layer_1" x="0" y="0" enable-background="new 0 0 150 150" version="1.1" viewBox="0 0 150 150" xml:space="preserve"><style type="text/css">.st0{fill:none;stroke:#000;stroke-width:2;stroke-linecap:round;stroke-linejoin:round;stroke-miterlimit:10}</style><g><ellipse cx="75" cy="85" class="st0" rx="52.2" ry="52.2" transform="matrix(0.7071 -0.7071 0.7071 0.7071 -38.152 77.9351)"/><ellipse cx="75" cy="84.8" class="st0" rx="42.3" ry="42.3" transform="matrix(0.2298 -0.9732 0.9732 0.2298 -24.8084 138.3466)"/><path d="M77.7,84.8c0,1.5-1.2,2.7-2.7,2.7c-1.5,0-2.7-1.2-2.7-2.7c0-1.5,1.2-2.7,2.7-2.7 C76.5,82.1,77.7,83.3,77.7,84.8z" class="st0"/><line x1="75" x2="107.4" y1="84.8" y2="70.6" class="st0"/><path d="M85.4,21.7H64.6c-2.4,0-4.4-2-4.4-4.4v-0.2c0-2.4,2-4.4,4.4-4.4h20.8c2.4,0,4.4,2,4.4,4.4v0.2 C89.8,19.7,87.8,21.7,85.4,21.7z" class="st0"/><line x1="81.3" x2="81.3" y1="22.8" y2="31.8" class="st0"/><line x1="68.7" x2="68.7" y1="31.8" y2="22.8" class="st0"/><polyline points="99.7 38.1 104.7 30.5 115.1 37.4 110.2 44.9" class="st0"/><path d="M91.6,58" class="st0"/><line x1="45.1" x2="50.8" y1="54.9" y2="60.7" class="st0"/><line x1="99.2" x2="104.9" y1="109" y2="114.8" class="st0"/><line x1="104.9" x2="99.2" y1="54.9" y2="60.7" class="st0"/><line x1="50.8" x2="45.1" y1="109" y2="114.8" class="st0"/><line x1="75" x2="75" y1="42.5" y2="50.6" class="st0"/><line x1="75" x2="75" y1="119.1" y2="127.2" class="st0"/><line x1="117.3" x2="109.2" y1="84.8" y2="84.8" class="st0"/><line x1="40.8" x2="32.7" y1="84.8" y2="84.8" class="st0"/></g></svg>