<svg xmlns="http://www.w3.org/2000/svg" xmlns:xlink="http://www.w3.org/1999/xlink" id="Layer_1" x="0" y="0" enable-background="new 0 0 150 150" version="1.1" viewBox="0 0 150 150" xml:space="preserve"><style type="text/css">.st0{stroke-miterlimit:10}.st0,.st1,.st2{fill:none;stroke:#151b26;stroke-width:2;stroke-linecap:round;stroke-linejoin:round}.st2{stroke-dasharray:11.2267,11.2267}</style><g><path d="M26.1,32.5L26.1,32.5c-6,6-9.6,14.2-9.4,22.8c0.2,12.2,5.8,30.2,28,52.4c13.1,13.1,24.4,20.1,33.8,23.5 c13.4,4.9,28.5,1.3,38.6-8.8l0,0c2.1-2.1,2.1-5.4,0-7.5l-16.2-16.2c-2-2-5.3-2.1-7.4-0.1l-9.7,9.1c0,0-28.7-10.4-42.6-42.6l8.7-8.7 c2.4-2.4,2.4-6.2,0-8.6L34.7,32.5C32.3,30.2,28.5,30.2,26.1,32.5z" class="st0"/><line x1="24.5" x2="40.8" y1="34.1" y2="50.4" class="st0"/><line x1="115" x2="98.2" y1="124.6" y2="107.8" class="st0"/><path d="M83.8,107.7l-6,6c0,0-10.1-3.3-21.3-14" class="st0"/><path d="M53.7,95.4" class="st0"/><path d="M51.2,93.8c0,0-4.2-4.5-6.7-8.8" class="st0"/><g><g><g><path d="M79.3,16.7c1.7-0.1,3.3-0.1,5,0" class="st1"/><path d="M95.4,18.5c5.3,1.5,10.5,3.8,15.3,6.9" class="st2"/><path d="M115.2,28.8c1.3,1.1,2.5,2.2,3.7,3.4" class="st1"/></g></g></g><path d="M118.9,32.1c19.2,19.2,19.2,50.4,0,69.7" class="st0"/><path d="M43.9,32.1c9.8-9.8,22.5-15,35.4-15.5" class="st0"/><path d="M56.2,44.2c14-14,36.6-14,50.6,0c14,14,14,36.6,0,50.6" class="st0"/><line x1="112.5" x2="108.7" y1="86.1" y2="84.2" class="st0"/><line x1="116.5" x2="112.4" y1="64.1" y2="65.1" class="st0"/><line x1="64.4" x2="66.1" y1="38.1" y2="43.5" class="st0"/><line x1="86.4" x2="85.4" y1="34" y2="38.1" class="st0"/><line x1="106.9" x2="102.3" y1="44.2" y2="48.8" class="st0"/><line x1="68.7" x2="77.9" y1="81.9" y2="81.9" class="st0"/><line x1="70.4" x2="75.7" y1="69.1" y2="69.1" class="st0"/><line x1="87.4" x2="92.7" y1="69.1" y2="69.1" class="st0"/><line x1="68.7" x2="77.9" y1="56.1" y2="56.1" class="st0"/><line x1="68.7" x2="68.7" y1="72.2" y2="78.7" class="st0"/><line x1="95.3" x2="95.3" y1="70.5" y2="81.3" class="st0"/><line x1="95.3" x2="95.3" y1="56.1" y2="66.8" class="st0"/><line x1="84.6" x2="84.6" y1="56.1" y2="66.8" class="st0"/><line x1="77.9" x2="77.9" y1="59.8" y2="66.5" class="st0"/><path d="M122.9,53.6c0,0,5.5,11.5,0.8,25.9" class="st0"/><path d="M57.1,32.4c0,0,3.4-2.6,7.3-3.6" class="st0"/><line x1="119.2" x2="115.8" y1="46.8" y2="41.5" class="st0"/></g></svg>