<svg xmlns="http://www.w3.org/2000/svg" xmlns:xlink="http://www.w3.org/1999/xlink" id="Layer_1" x="0" y="0" enable-background="new 0 0 150 150" version="1.1" viewBox="0 0 150 150" xml:space="preserve"><style type="text/css">.st0{fill:none;stroke:#1c6be1;stroke-width:2;stroke-linecap:round;stroke-linejoin:round;stroke-miterlimit:10}</style><g><polyline points="127.3 58.2 121.4 65.1 115.5 58.2" class="st0"/><g><path d="M97.5,29.1H22.1c-1.4,0-2.6-1.1-2.6-2.6l0,0c0-1.4,1.1-2.6,2.6-2.6h75.4c1.4,0,2.6,1.1,2.6,2.6l0,0 C100,27.9,98.9,29.1,97.5,29.1z" class="st0"/><path d="M97.5,85.1H22.1c-1.4,0-2.6-1.1-2.6-2.6l0,0c0-1.4,1.1-2.6,2.6-2.6h75.4c1.4,0,2.6,1.1,2.6,2.6l0,0 C100,83.9,98.9,85.1,97.5,85.1z" class="st0"/><line x1="23.5" x2="23.5" y1="80" y2="29.3" class="st0"/><line x1="97" x2="97" y1="57.8" y2="80" class="st0"/><line x1="97" x2="97" y1="29.3" y2="50.1" class="st0"/><line x1="65.4" x2="60.3" y1="19.5" y2="19.5" class="st0"/><g><line x1="71.7" x2="86" y1="40.8" y2="40.8" class="st0"/><line x1="71.7" x2="86" y1="47.5" y2="47.5" class="st0"/><line x1="71.7" x2="86" y1="61.2" y2="61.2" class="st0"/><line x1="71.7" x2="78.8" y1="67.9" y2="67.9" class="st0"/><line x1="84" x2="86" y1="67.9" y2="67.9" class="st0"/></g><g><path d="M45.7,38.2c-8,1-14.2,7.8-14.2,16.1s6.2,15.1,14.2,16.1V38.2z" class="st0"/><path d="M49.8,51.6l12.8-3.9c-2.3-5.1-7.1-8.7-12.8-9.4V51.6z" class="st0"/><path d="M49.8,55.9v14.6c8-1,14.2-7.8,14.2-16.1c0-1-0.1-1.9-0.3-2.8L49.8,55.9z" class="st0"/></g></g><ellipse cx="121.3" cy="46.5" class="st0" rx="7.5" ry="7.5"/><path d="M37,108c0,4.3-3.5,7.7-7.7,7.7c-4.3,0-7.7-3.5-7.7-7.7c0-4.3,3.5-7.7,7.7-7.7C33.6,100.3,37,103.8,37,108z" class="st0"/><path d="M130.7,71.8v14.6c0,1.5,1.2,2.6,2.6,2.6l0,0c1.5,0,2.6-1.2,2.6-2.6V68.8c0-6.1-5-11.2-11.2-11.2h-6.1h-6.3 L97,50.4c-1.3-0.6-2.9-0.2-3.7,1l0,0c-1,1.4-0.6,3.4,0.9,4.3l18.2,11.1v49.8h17.5V94.1" class="st0"/><line x1="121.4" x2="121.4" y1="115.6" y2="89" class="st0"/><circle cx="57.3" cy="108" r="7.7" class="st0"/><path d="M93,108c0,4.3-3.5,7.7-7.7,7.7c-4.3,0-7.7-3.5-7.7-7.7c0-4.3,3.5-7.7,7.7-7.7S93,103.8,93,108z" class="st0"/><path d="M100.6,130.5c0-5.7-4.6-10.3-10.3-10.3h-10c-3.8,0-7.2,2.1-9,5.3c-1.8-3.1-5.1-5.3-9-5.3h-10 c-3.8,0-7.2,2.1-9,5.3c-1.8-3.1-5.1-5.3-9-5.3h-10c-5.7,0-10.3,4.6-10.3,10.3" class="st0"/><line x1="112.3" x2="119.5" y1="78.6" y2="78.6" class="st0"/></g></svg>