<svg xmlns="http://www.w3.org/2000/svg" xmlns:xlink="http://www.w3.org/1999/xlink" id="Layer_1" x="0" y="0" enable-background="new 0 0 150 150" version="1.1" viewBox="0 0 150 150" xml:space="preserve"><style type="text/css">.st0{fill:none;stroke:#21c87a;stroke-width:2;stroke-linecap:round;stroke-linejoin:round;stroke-miterlimit:10}.st1{fill:#21c87a}</style><g><line x1="30.9" x2="119.1" y1="101.8" y2="101.8" class="st0"/><g><g><g><path d="M22.8,74.3c-1.9,0-3.5-1.6-3.5-3.5V29.3c0-1.9,1.6-3.5,3.5-3.5h61.5c1.9,0,3.5,1.6,3.5,3.5v41.5 c0,1.9-1.6,3.5-3.5,3.5H22.8z" class="st0"/><path d="M87.8,70.8" class="st0"/><path d="M81.1,63.6" class="st0"/><line x1="19.3" x2="87.8" y1="63.6" y2="63.6" class="st0"/><path d="M55.1,69.2c0,0.8-0.7,1.5-1.5,1.5c-0.8,0-1.5-0.7-1.5-1.5c0-0.8,0.7-1.5,1.5-1.5 C54.4,67.6,55.1,68.3,55.1,69.2z" class="st1"/><line x1="50.8" x2="56.3" y1="29.6" y2="29.6" class="st0"/><path d="M24,63.6" class="st0"/><line x1="24" x2="24" y1="37.7" y2="53.6" class="st0"/><line x1="24" x2="24" y1="57.4" y2="63.6" class="st0"/><line x1="80.7" x2="70.5" y1="33.9" y2="44.1" class="st0"/><line x1="67" x2="64" y1="47.1" y2="50.2" class="st0"/></g><line x1="70.5" x2="76.6" y1="50.7" y2="44.6" class="st0"/></g><g><line x1="44.9" x2="42.9" y1="74.3" y2="83.9" class="st0"/><line x1="62.1" x2="64.2" y1="74.3" y2="83.9" class="st0"/></g></g><rect width="120.5" height="7.4" x="14.8" y="84.3" class="st0"/><polyline points="115 84.3 115 80.5 129.3 80.5 129.3 84.3" class="st0"/><polyline points="122.2 80.5 122.2 44.1 111.8 38.6" class="st0"/><path d="M114.4,51.2L97.8,43l1.6-3.2c0.7-1.5,2.5-2.1,4-1.4l11.3,5.6c1.5,0.7,2.1,2.5,1.4,4L114.4,51.2z" class="st0"/><path d="M107.2,79.6h1.8c1.6,0,2.9-1.3,2.9-2.9l0,0c0-1.6-1.3-2.9-2.9-2.9h-1.2" class="st0"/><g><g><line x1="119.1" x2="119.1" y1="124.2" y2="91.8" class="st0"/><line x1="125.4" x2="125.4" y1="91.8" y2="124.2" class="st0"/></g><g><line x1="24.6" x2="24.6" y1="124.2" y2="91.8" class="st0"/><line x1="30.9" x2="30.9" y1="91.8" y2="124.2" class="st0"/></g></g><path d="M98.7,60.9c-0.2,0.3-0.4,0.6-0.4,0.9c0,0.3,0.1,0.6,0.4,0.9c0.7,0.9,0.7,2,0,3" class="st0"/><path d="M102.7,62.8c0.7,0.9,0.7,2,0,3" class="st0"/><path d="M105.2,84.3c1.6-2.4,2.6-5.9,2.6-9.8c0-1.6-0.2-3-0.5-4.4h-2.9H97h-2.9c-0.3,1.4-0.5,2.9-0.5,4.4 c0,3.9,1,7.4,2.6,9.8" class="st0"/><line x1="89.6" x2="89.6" y1="91.8" y2="101.8" class="st0"/><line x1="60.3" x2="60.3" y1="91.8" y2="101.8" class="st0"/><line x1="46.9" x2="44.3" y1="97" y2="97" class="st0"/><line x1="76.3" x2="73.7" y1="97" y2="97" class="st0"/><line x1="105.7" x2="103.1" y1="97" y2="97" class="st0"/></g></svg>