<svg xmlns="http://www.w3.org/2000/svg" xmlns:xlink="http://www.w3.org/1999/xlink" id="Layer_1" x="0" y="0" enable-background="new 0 0 150 150" version="1.1" viewBox="0 0 150 150" xml:space="preserve"><style type="text/css">.st0{fill:none;stroke:#fff;stroke-width:2;stroke-linecap:round;stroke-linejoin:round;stroke-miterlimit:10}</style><g><g><line x1="42.5" x2="53.4" y1="84.7" y2="84.7" class="st0"/><line x1="61.9" x2="50.6" y1="95.3" y2="95.3" class="st0"/><line x1="45.2" x2="39.5" y1="95.3" y2="95.3" class="st0"/><line x1="23.4" x2="28.9" y1="105" y2="105" class="st0"/><line x1="34.3" x2="50.6" y1="105" y2="105" class="st0"/><line x1="34.3" x2="18.7" y1="95.3" y2="95.3" class="st0"/><line x1="36.3" x2="32.5" y1="84.7" y2="84.7" class="st0"/><path d="M129.3,90.8v27.8c0,2.2-1.8,4-4,4H46.2c-2.2,0-4-1.8-4-4V113" class="st0"/><path d="M42.2,76.1V68c0-2.2,1.8-4,4-4h79.2c2.2,0,4,1.8,4,4v14.2" class="st0"/><g><line x1="96.7" x2="128.5" y1="100.6" y2="121.2" class="st0"/><line x1="74.8" x2="43" y1="100.6" y2="121.2" class="st0"/><line x1="43" x2="85.7" y1="65.8" y2="97.5" class="st0"/><line x1="128.5" x2="85.7" y1="65.8" y2="97.5" class="st0"/></g><line x1="88.2" x2="73.7" y1="114.5" y2="114.5" class="st0"/><line x1="94.4" x2="100.9" y1="114.5" y2="114.5" class="st0"/><path d="M108.4,127.8" class="st0"/></g><g><line x1="90.7" x2="108.9" y1="53.7" y2="53.7" class="st0"/><line x1="127.6" x2="122.1" y1="45" y2="45" class="st0"/><line x1="116.7" x2="100.4" y1="45" y2="45" class="st0"/><line x1="115.7" x2="131.3" y1="53.7" y2="53.7" class="st0"/><path d="M21.9,59.2V31.4c0-2.2,1.8-4,4-4h79.2c2.2,0,4,1.8,4,4V37" class="st0"/><g><line x1="34.7" x2="65.1" y1="37.2" y2="56.7" class="st0"/><line x1="96.3" x2="65.3" y1="36.9" y2="56.7" class="st0"/></g><path d="M42.6,22.2" class="st0"/></g></g></svg>