<svg xmlns="http://www.w3.org/2000/svg" xmlns:xlink="http://www.w3.org/1999/xlink" id="Layer_1" x="0" y="0" enable-background="new 0 0 1173 308.7" version="1.1" viewBox="0 0 1173 308.7" xml:space="preserve"><style type="text/css">.st0{fill:#da4b48}.st1{fill:url(#SVGID_1_)}</style><g><path d="M396.9,181.8H292.6V149L390.1,9.5h48.6v135.9h26.2v36.4h-26.2v42.3h-41.7V181.8z M399.6,145.4V54.2l-61.1,91.2 H399.6z" class="st0"/><path d="M583.8,2.6c61.4,0,80.5,47.1,80.5,110c0,63.5-19.1,110.9-80.5,110.9c-61.4,0-80.5-47.4-80.5-110.9 C503.3,49.7,522.4,2.6,583.8,2.6z M583.8,41.4c-35.2,0-39.3,34-39.3,71.2c0,38.7,4.2,72.1,39.3,72.1s39.3-33.4,39.3-72.1 C623.2,75.4,619,41.4,583.8,41.4z" class="st0"/><path d="M810.3,181.8H706V149L803.5,9.5h48.6v135.9h26.2v36.4h-26.2v42.3h-41.7V181.8z M813,145.4V54.2l-61.1,91.2H813 z" class="st0"/></g><linearGradient id="SVGID_1_" x1="587.442" x2="587.442" y1="285.357" y2="195.357" gradientUnits="userSpaceOnUse"><stop offset="0" stop-color="#F5F8FB"/><stop offset=".334" stop-color="#F1F5F9"/><stop offset=".666" stop-color="#E5ECF1"/><stop offset=".998" stop-color="#D1DDE5"/><stop offset="1" stop-color="#D1DDE5"/></linearGradient><path d="M0.9,285.4c0,0,637-202.5,1173,0H0.9z" class="st1"/></svg>