<svg xmlns="http://www.w3.org/2000/svg" xmlns:xlink="http://www.w3.org/1999/xlink" id="Layer_1" x="0" y="0" enable-background="new 0 0 150 150" version="1.1" viewBox="0 0 150 150" xml:space="preserve"><style type="text/css">.st0{fill:none;stroke:#1c6be1;stroke-width:2;stroke-linecap:round;stroke-linejoin:round;stroke-miterlimit:10}</style><g><g><polyline points="29.7 82 58.3 66.3 63.6 72.1 86.2 58.3 93.5 66.7 125.4 39.8" class="st0"/><polyline points="116.3 41.8 125.4 39.8 122.4 48.4" class="st0"/><polyline points="47.3 77.5 47.3 84.4 41.6 84.4 41.6 80.7" class="st0"/><polyline points="58.7 75.4 58.7 84.4 53 84.4 53 75.4" class="st0"/><polyline points="81.5 69.1 81.5 84.4 75.8 84.4 75.8 73.3" class="st0"/><polyline points="92.9 75.4 92.9 84.4 87.2 84.4 87.2 71.2" class="st0"/><polyline points="104.3 69.1 104.3 84.4 98.5 84.4 98.5 72.2" class="st0"/><polyline points="70.1 77.5 70.1 84.4 64.4 84.4 64.4 79.6" class="st0"/><polyline points="98.5 53 98.5 35.5 104.3 35.5 104.3 47.8" class="st0"/><polyline points="75.8 57.2 75.8 41.8 81.5 41.8 81.5 53" class="st0"/><polyline points="64.4 63.6 64.4 54.5 70.1 54.5 70.1 60.4" class="st0"/><polyline points="53 61.5 53 50.2 58.7 50.2 58.7 58.3" class="st0"/><polyline points="41.6 67.8 41.6 59.8 47.3 59.8 47.3 64.6" class="st0"/><polyline points="87.2 51.8 87.2 46 92.9 46 92.9 56.1" class="st0"/></g><path d="M21.6,109.8c-3.4,0-6.1-2.7-6.1-6.1v-74c0-3.4,2.7-6.1,6.1-6.1h106.8c3.4,0,6.1,2.7,6.1,6.1v74 c0,3.4-2.7,6.1-6.1,6.1H21.6z" class="st0"/><path d="M134.5,103.7" class="st0"/><path d="M122.9,91.2" class="st0"/><line x1="15.5" x2="134.5" y1="91.2" y2="91.2" class="st0"/><path d="M77.7,100.8c0,1.5-1.2,2.7-2.7,2.7s-2.7-1.2-2.7-2.7s1.2-2.7,2.7-2.7S77.7,99.3,77.7,100.8z" class="st0"/><line x1="72.8" x2="77.2" y1="29.1" y2="29.1" class="st0"/><path d="M23.7,91.2" class="st0"/><g><line x1="60.1" x2="56.5" y1="109.8" y2="126.4" class="st0"/><line x1="89.9" x2="93.5" y1="109.8" y2="126.4" class="st0"/></g><line x1="105.6" x2="44.4" y1="126.4" y2="126.4" class="st0"/><line x1="26.2" x2="36" y1="37.5" y2="37.5" class="st0"/><line x1="26.2" x2="31.1" y1="48.7" y2="48.7" class="st0"/><line x1="35.7" x2="43.2" y1="48.7" y2="48.7" class="st0"/><line x1="43.7" x2="46" y1="43.1" y2="43.1" class="st0"/><line x1="26.2" x2="38.3" y1="43.1" y2="43.1" class="st0"/></g></svg>