<svg xmlns="http://www.w3.org/2000/svg" xmlns:xlink="http://www.w3.org/1999/xlink" id="Layer_1" x="0" y="0" enable-background="new 0 0 150 150" version="1.1" viewBox="0 0 150 150" xml:space="preserve"><style type="text/css">.st0{fill:none;stroke:#796eff;stroke-width:2;stroke-linecap:round;stroke-linejoin:round;stroke-miterlimit:10}</style><g><line x1="58.6" x2="58.6" y1="38.4" y2="38.4" class="st0"/><path d="M43.4,59.2" class="st0"/><path d="M132.2,75.9c0,11.1-25.6,20-57.2,20s-57.2-9-57.2-20c0-6,7.6-11.5,19.7-15.1" class="st0"/><path d="M125.9,66.7c0.9,0.6,1.7,1.2,2.4,1.9" class="st0"/><path d="M106.6,59.2" class="st0"/><circle cx="34.8" cy="115.8" r="4.7" class="st0"/><ellipse cx="75" cy="75.8" class="st0" rx="35.4" ry="35.4" transform="matrix(1.280544e-02 -0.9999 0.9999 1.280544e-02 -1.7539 149.8229)"/><path d="M40.2,100.4" class="st0"/><path d="M72.2,100.4c-0.9-0.7-1.8-1.5-2.7-2.3c-2.9-2.5-5.8-5.2-8.6-8C38.5,67.7,26.8,43.3,34.6,35.5" class="st0"/><path d="M116,100.2c2.5,7.2,2.5,12.9-0.6,16.1c-5.9,5.9-21,0.8-37.6-11.5" class="st0"/><path d="M109,86.1" class="st0"/><path d="M89.2,61.7" class="st0"/><path d="M60.8,61.7" class="st0"/><path d="M75,111.4" class="st0"/><path d="M89.2,87.1" class="st0"/><path d="M60.3,83.4C60.1,81,60,78.5,60,75.9c0-19.6,6.7-35.5,15-35.5s15,15.9,15,35.5c0,2.6-0.1,5.1-0.3,7.5" class="st0"/><path d="M60.8,87.1" class="st0"/><line x1="105.4" x2="44.6" y1="58.4" y2="58.4" class="st0"/><path d="M121.8,36c0,3.6-2.9,6.5-6.5,6.5c-3.6,0-6.5-2.9-6.5-6.5c0-3.6,2.9-6.5,6.5-6.5 C118.9,29.5,121.8,32.4,121.8,36z" class="st0"/><path d="M95.9,100" class="st0"/><path d="M105,58.8" class="st0"/><path d="M75,55.8" class="st0"/><line x1="75" x2="75" y1="40.4" y2="87.3" class="st0"/><path d="M117.8,42.2c0.2,13.6-10.8,27.6-19,37.4c-11.3,13.6-25.2,26.3-41.1,34.4c-5.4,2.7-11.8,5.5-18,4.7" class="st0"/><path d="M115.4,35.5" class="st0"/><path d="M66.9,87.8" class="st0"/><path d="M120.2,67.8" class="st0"/><path d="M98.5,51.1" class="st0"/><line x1="95.6" x2="54.4" y1="75.5" y2="75.5" class="st0"/><path d="M85.2,41.9c9.7-6.1,18.4-9.3,24.4-8.8" class="st0"/><line x1="121.3" x2="121.3" y1="64.1" y2="64.1" class="st0"/><line x1="32.7" x2="32.7" y1="104.7" y2="104.7" class="st0"/><path d="M35,98.6c0.6-1.3,2.3-5.9,3-7.3" class="st0"/><line x1="52.3" x2="52.3" y1="35.5" y2="35.5" class="st0"/><path d="M39.8,33.1c1-0.1,3.5-0.5,4.6-0.4" class="st0"/></g></svg>