<svg xmlns="http://www.w3.org/2000/svg" xmlns:xlink="http://www.w3.org/1999/xlink" id="Layer_1" x="0" y="0" enable-background="new 0 0 150 150" version="1.1" viewBox="0 0 150 150" xml:space="preserve"><style type="text/css">.st0{fill:none;stroke:#fff;stroke-width:2;stroke-linecap:round;stroke-linejoin:round;stroke-miterlimit:10}</style><g><g><polyline points="41.6 85.2 48.9 85.2 48.9 118.2 41.6 118.2" class="st0"/><path d="M101.9,102.7l17.2-4.7c2.1-0.6,4.3,0.6,5,2.7l0,0c0.6,1.9-0.2,4.1-2.1,5l-33.5,16.7c-3.7,1.8-7.9,2-11.7,0.4 l-18.6-7.9h-9.4" class="st0"/><path d="M48.9,88.5h9.4l19.8,6.1h11.6c2.7,0,4.9,2.2,4.9,4.9l0,0c0,2.5-2,4.5-4.5,4.5h-12c-2.6,0-4.7,2.1-4.7,4.7l0,0" class="st0"/></g><g><path d="M81.8,81.5C83,83,84.7,84,86.8,84c3.4,0,6.1-2.7,6.1-6.1c0-3.4-2.7-6.1-6.1-6.1h-0.1c-2.6,0-4.7-2.1-4.7-4.7 c0-2.6,2.1-4.7,4.7-4.7c1.6,0,3,0.8,3.8,1.9" class="st0"/><line x1="86.7" x2="86.7" y1="62.3" y2="59.7" class="st0"/><line x1="86.7" x2="86.7" y1="86.6" y2="84" class="st0"/></g><polygon points="74.4 22.7 100.3 22.7 95.1 35.1 79.7 35.1" class="st0"/><path d="M111.7,100.1c1.2-1.9,1.8-4.2,1.8-6.6V67.6c0-11.7-7.8-21.7-18.5-25H79.7c-10.7,3.3-18.5,13.3-18.5,25v21.8" class="st0"/><g><line x1="79.7" x2="79.7" y1="42.5" y2="35.3" class="st0"/><line x1="95.1" x2="95.1" y1="35.3" y2="42.5" class="st0"/></g><g><line x1="89.9" x2="92.1" y1="34.8" y2="29.2" class="st0"/><line x1="84.8" x2="82.6" y1="34.8" y2="29.2" class="st0"/></g><g><line x1="98.8" x2="100.3" y1="74.4" y2="74.4" class="st0"/><line x1="74.4" x2="75.9" y1="74.4" y2="74.4" class="st0"/></g><polyline points="25.7 82.4 41.6 82.4 41.6 127.3 25.7 127.3" class="st0"/></g></svg>