<svg xmlns="http://www.w3.org/2000/svg" xmlns:xlink="http://www.w3.org/1999/xlink" id="Layer_1" x="0" y="0" enable-background="new 0 0 450 450" version="1.1" viewBox="0 0 450 450" xml:space="preserve"><style type="text/css">.st0,.st1{stroke:#21c87a;stroke-miterlimit:10}.st0{opacity:.1;fill:url(#SVGID_1_);enable-background:new}.st1{fill:#fff;stroke-opacity:.3}.st2,.st3,.st4,.st5{fill:none;stroke-linecap:round;stroke-linejoin:round;stroke-miterlimit:10}.st2{stroke:#21c87a;stroke-width:2}.st3{stroke:#1c6be1}.st4{stroke:#da4b48}.st5{stroke:#796eff}.st6{fill:#796eff}.st7,.st8{fill:none;stroke:#ffbc42;stroke-linecap:round;stroke-linejoin:round;stroke-miterlimit:10}.st8{stroke-dasharray:6}</style><g><radialGradient id="SVGID_1_" cx="225" cy="525" r="176.2" gradientTransform="matrix(1 0 0 -1 0 750)" gradientUnits="userSpaceOnUse"><stop offset=".699" stop-color="#FFF"/><stop offset=".718" stop-color="#F6FDFA" stop-opacity=".907"/><stop offset=".748" stop-color="#DFF7EC" stop-opacity=".758"/><stop offset=".786" stop-color="#B9EED5" stop-opacity=".572"/><stop offset=".83" stop-color="#84E1B6" stop-opacity=".356"/><stop offset=".878" stop-color="#42D08E" stop-opacity=".118"/><stop offset=".9" stop-color="#21C87A" stop-opacity=".01"/></radialGradient><circle cx="225" cy="225" r="176.2" class="st0"/><circle cx="225" cy="225" r="139.6" class="st1"/></g><g><g><line x1="173.8" x2="239.4" y1="273" y2="273" class="st2"/><g><line x1="177.3" x2="177.3" y1="273" y2="242.7" class="st2"/><line x1="196.8" x2="196.8" y1="273" y2="242.7" class="st2"/><line x1="206.6" x2="206.6" y1="273" y2="253" class="st2"/><line x1="206.6" x2="206.6" y1="245.2" y2="242" class="st2"/><line x1="226.2" x2="226.2" y1="273" y2="250.3" class="st2"/><line x1="216.4" x2="216.4" y1="273" y2="232.5" class="st2"/><line x1="235.9" x2="235.9" y1="273" y2="236.9" class="st2"/><line x1="187.1" x2="187.1" y1="273" y2="234.5" class="st2"/></g><g><line x1="197.2" x2="238" y1="194.6" y2="194.6" class="st2"/><line x1="197.2" x2="238" y1="204.6" y2="204.6" class="st2"/><line x1="175.2" x2="217.6" y1="214.7" y2="214.7" class="st2"/><rect width="12.2" height="12.2" x="175.3" y="193.4" class="st2"/></g></g><polyline points="193.8 165.2 193.8 147.1 301.5 147.1" class="st2"/><line x1="284.6" x2="258.8" y1="275.8" y2="275.8" class="st2"/><path d="M240.5,293v-9.8h-99.7v9.8c0,5.4,4.4,9.8,9.8,9.8h99.7C244.9,302.9,240.5,298.5,240.5,293z" class="st2"/><path d="M249.9,302.9c4.3,0,7.8-3.5,7.8-7.8V179.8c0-4.9,4-8.8,8.8-8.8l0,0c4.9,0,8.8,4,8.8,8.8v86.9 c0,5.1,4.1,9.2,9.2,9.2l0,0c5.1,0,9.2-4.1,9.2-9.2V154.8c0-4.3,3.4-7.7,7.7-7.7l0,0c4.3,0,7.7,3.4,7.7,7.7v11.8h-15.4" class="st2"/><path d="M265.9,171h-95c-7.3,0-13.2,5.9-13.2,13.2v99" class="st2"/></g><g><circle cx="426.9" cy="40.6" r="3.2" class="st3"/><polyline points="403.6 8.2 405.6 6.1 407.7 8.2" class="st3"/><line x1="408.5" x2="410.5" y1="6.1" y2="8.2" class="st3"/><line x1="403.4" x2="409.1" y1="44.1" y2="44.1" class="st3"/><line x1="403.4" x2="409.1" y1="46.7" y2="46.7" class="st3"/><line x1="403.4" x2="409.1" y1="15.3" y2="15.3" class="st3"/><line x1="403.4" x2="432.1" y1="20.2" y2="20.2" class="st3"/><line x1="403.4" x2="432.1" y1="24.1" y2="24.1" class="st3"/><line x1="403.4" x2="432.1" y1="28.1" y2="28.1" class="st3"/><polygon points="429.3 9.5 437.6 9.5 429.3 1.2" class="st3"/><g><polyline points="432.5 53.4 437.6 53.4 437.6 9.5" class="st3"/><polyline points="429.3 1.2 398.4 1.2 398.4 53.4 421.8 53.4" class="st3"/></g><g><polyline points="417.9 56.4 395.4 56.4 395.4 4.2" class="st3"/></g><polyline points="429.4 50.7 429.4 56.8 425.7 54.7 422 56.8 422 48.8" class="st3"/><line x1="432" x2="432" y1="48.6" y2="55.8" class="st3"/><path d="M425.8,48.2L425.8,48.2c-1,1-2.6,0.4-2.7-1l0,0c-0.1-0.9-0.9-1.5-1.7-1.5l0,0c-1.4,0.1-2.2-1.4-1.5-2.5l0,0 c0.5-0.7,0.3-1.7-0.4-2.2l0,0c-1.1-0.8-0.8-2.5,0.5-2.9l0,0c0.9-0.2,1.4-1.1,1.1-2l0,0c-0.3-1.3,1-2.4,2.2-1.9l0,0 c0.8,0.4,1.8,0,2.1-0.8l0,0c0.6-1.2,2.3-1.2,2.9,0l0,0c0.4,0.8,1.3,1.1,2.1,0.8l0,0c1.2-0.6,2.6,0.6,2.2,1.9l0,0 c-0.2,0.9,0.3,1.7,1.1,2l0,0c1.3,0.4,1.6,2.1,0.5,2.9l0,0c-0.7,0.5-0.9,1.5-0.4,2.2l0,0c0.8,1.1-0.1,2.6-1.5,2.5l0,0 c-0.9-0.1-1.7,0.6-1.7,1.5l0,0c-0.1,1.4-1.8,2-2.7,1l0,0C427.4,47.6,426.4,47.6,425.8,48.2z" class="st3"/><g><line x1="443.8" x2="443.8" y1="11.1" y2="9.2" class="st3"/><path d="M445.5,49.3l-1.7,2.5l-1.7-2.5V12.8c0-0.9,0.8-1.7,1.7-1.7l0,0c0.9,0,1.7,0.8,1.7,1.7V49.3z" class="st3"/><line x1="445.5" x2="442.1" y1="14.8" y2="14.8" class="st3"/><path d="M442.1,17.1h3.4h0.7c1,0,1.8,0.8,1.8,1.8v9.9c0,0.9,0.3,1.8,0.9,2.5" class="st3"/><line x1="445.5" x2="442.1" y1="47.3" y2="47.3" class="st3"/></g></g><g><path d="M408.4,448.9c-16.2,0-29.4-13.1-29.4-29.4c0-16.2,13.1-29.4,29.4-29.4" class="st4"/><path d="M408.4,441.8c-12.2,0-22.1-9.9-22.1-22.1s9.9-22.1,22.1-22.1" class="st4"/><line x1="392.7" x2="395.3" y1="435.3" y2="432.7" class="st4"/><polyline points="441.6 395.9 433.7 404.8 425.1 404.8 408.4 419.7" class="st4"/><line x1="392.7" x2="395.3" y1="403.9" y2="406.5" class="st4"/><line x1="386.3" x2="389.9" y1="419.7" y2="419.7" class="st4"/><line x1="408.4" x2="408.4" y1="397.4" y2="401.1" class="st4"/><line x1="401" x2="408.4" y1="412.2" y2="419.7" class="st4"/><line x1="408.4" x2="408.4" y1="438.1" y2="441.8" class="st4"/><line x1="412.2" x2="444" y1="432.6" y2="432.6" class="st4"/><line x1="417.7" x2="417.7" y1="432.6" y2="423.3" class="st4"/><line x1="425.6" x2="425.6" y1="432.6" y2="415.9" class="st4"/><line x1="441.6" x2="441.6" y1="432.6" y2="419.7" class="st4"/><line x1="441.6" x2="441.6" y1="415.9" y2="408.5" class="st4"/><line x1="433.7" x2="433.7" y1="432.6" y2="419.7" class="st4"/><polyline points="441.9 400.8 441.9 395.6 436.8 395.6" class="st4"/><line x1="433.7" x2="433.7" y1="414.7" y2="416.5" class="st4"/><line x1="447.2" x2="449" y1="432.6" y2="432.6" class="st4"/></g><g><g><g><g><line x1="32.1" x2="37.5" y1="414.8" y2="414.8" class="st5"/><line x1="32.1" x2="37.5" y1="417.3" y2="417.3" class="st5"/></g><rect width="4.4" height="4.4" x="23.9" y="413.9" class="st5"/></g><g><g><line x1="32.1" x2="37.5" y1="423.5" y2="423.5" class="st5"/><line x1="32.1" x2="37.5" y1="426.1" y2="426.1" class="st5"/></g><rect width="4.4" height="4.4" x="23.9" y="422.6" class="st5"/></g><g><g><line x1="32.1" x2="37.5" y1="432.3" y2="432.3" class="st5"/><line x1="32.1" x2="34.8" y1="434.8" y2="434.8" class="st5"/></g><rect width="4.4" height="4.4" x="23.9" y="431.3" class="st5"/></g><path d="M40.4,448.9H21.7c-1.3,0-2.4-1.1-2.4-2.4v-41.1c0-1.3,1.1-2.4,2.4-2.4h18.7c1.3,0,2.4,1.1,2.4,2.4v41.1 C42.8,447.8,41.7,448.9,40.4,448.9z" class="st5"/><circle cx="31" cy="445" r="1.5" class="st5"/><line x1="22" x2="40" y1="408.2" y2="408.2" class="st5"/><line x1="40" x2="22" y1="441.6" y2="441.6" class="st5"/><line x1="30.1" x2="32" y1="405.4" y2="405.4" class="st5"/><path d="M33.5,441" class="st5"/></g><path d="M18,395.9c-1.4,1.5-2.3,3.4-2.8,5.4" class="st5"/><path d="M22.7,392.7c-0.6,0.2-1.1,0.4-1.6,0.7" class="st5"/><path d="M54.6,414.8c0-0.4,0.1-0.8,0.1-1.2" class="st5"/><path d="M50.5,421.5c1.6-1.1,2.8-2.6,3.5-4.3" class="st5"/><path d="M42.8,425.4h4.6c6.3,0,11.4-5.1,11.4-11.4c0-5.8-4.3-10.6-9.9-11.3c-0.6-4.5-4.5-8-9.1-8 c-0.9,0-1.8,0.1-2.6,0.4c-2.4-4.2-7-7.1-12.2-7.1c-7.7,0-14,6.3-14,14c0,0.3,0,0.6,0,0.9c-5.1,1.1-8.9,5.7-8.9,11.1 c0,6.3,5.1,11.4,11.4,11.4H19" class="st5"/><g><path d="M9.1,440.2H5.5c-2.3,0-4.2-1.9-4.2-4.2l0,0c0-2.3,1.9-4.2,4.2-4.2h9.7" class="st5"/><polyline points="6.8 437.9 9.1 440.2 6.8 442.5" class="st5"/><path d="M53,437.3h3.6c2.3,0,4.2,1.9,4.2,4.2l0,0c0,2.3-1.9,4.2-4.2,4.2h-9.7" class="st5"/><polyline points="55.2 439.6 53 437.3 55.2 435" class="st5"/></g></g><g id="Shapes"><polygon points="17.2 83.9 13.5 83.9 13.5 83.3 16.6 83.3 16.6 80.2 19.8 80.2 19.8 77.4 20.4 77.4 20.4 80.8 17.2 80.8" class="st6"/><path d="M288.8,191.7H281v-7.8h7.8V191.7z M282.2,190.5h5.5V185h-5.5V190.5z" class="st6"/><path d="M148.2,109.7h-5.5l-2.8-4.8l2.8-4.8h5.5l2.8,4.8L148.2,109.7z M143.3,108.6h4.2l2.1-3.6l-2.1-3.6h-4.2 l-2.1,3.6L143.3,108.6z" class="st6"/><path d="M317.5,381.8h-7.8V374h7.8V381.8z M310.8,380.7h5.5v-5.5h-5.5V380.7z" class="st6"/><path d="M367.2,220.8c0,1.1-0.9,2.1-2.1,2.1c-1.1,0-2.1-0.9-2.1-2.1c0-1.1,0.9-2.1,2.1-2.1 C366.3,218.7,367.2,219.6,367.2,220.8z" class="st6"/><path d="M436.6,174.1H427l4.8-8L436.6,174.1z M428.2,173.4h7.1l-3.6-6L428.2,173.4z" class="st6"/><path d="M104.5,319.4l-3.2-3.2l3.2-3.2l3.2,3.2L104.5,319.4z M102.2,316.2l2.2,2.2l2.2-2.2l-2.2-2.2L102.2,316.2z" class="st6"/></g><g><g><path d="M40.1,18.7c1.3,2.2,1.9,4.6,1.8,7c-0.1,3.1-1.4,6.2-3.8,8.6c-5,5-13.1,5-18.2,0c-5-5-5-13.1,0-18.2 c5-5,13.1-5,18.2,0" class="st7"/><path d="M29,41.1c-3.7,0-7-1.2-9.7-3.3" class="st8"/><path d="M19.3,37.7c-3.7-2.9-6.1-7.4-6.1-12.5c0-8.8,7.1-15.8,15.8-15.8c8.8,0,15.8,7.1,15.8,15.8s-7,15.9-15.8,15.9" class="st7"/><path d="M58.1,54.4L58.1,54.4c-1.3,1.3-3.5,1.3-4.8,0L42.5,43.6l4.8-4.8l10.8,10.8C59.4,51,59.4,53.1,58.1,54.4z" class="st7"/><line x1="49.9" x2="51" y1="50.7" y2="49.6" class="st7"/><line x1="47.7" x2="49.9" y1="48.5" y2="46.3" class="st7"/><line x1="43.6" x2="38.9" y1="42.5" y2="37.8" class="st7"/><line x1="43" x2="46.1" y1="36.8" y2="39.9" class="st7"/><path d="M56.9,53.1c0,0,0.6-0.8,0-2.3" class="st7"/><path d="M26.5,16.1c0,0-5.4,0.3-6.4,5.8" class="st7"/></g><path d="M18.1,39.5h-15c-1.3,0-2.4-1.1-2.4-2.4v-34c0-1.3,1.1-2.4,2.4-2.4h52.1c1.3,0,2.4,1.1,2.4,2.4v34 c0,1.3-1.1,2.4-2.4,2.4H51" class="st7"/><circle cx="17.4" cy="5.7" r="1.6" class="st7"/><circle cx="11.5" cy="5.7" r="1.6" class="st7"/><circle cx="5.6" cy="5.7" r="1.6" class="st7"/><rect width="30.9" height="3.2" x="22.5" y="4.2" class="st7"/><line x1=".9" x2="17.4" y1="11.5" y2="11.5" class="st7"/><g><path d="M38.8,30.5" class="st7"/><polyline points="44.5 20.6 49.4 20.6 49.4 29.1 44.7 29.1" class="st7"/><path d="M38.8,19.1" class="st7"/><path d="M23.4,19.1" class="st7"/><polyline points="28 19.1 34.8 19.1 34.8 30.5 23.4 30.5 23.4 23.6" class="st7"/><path d="M19.4,19.1" class="st7"/><polyline points="11.7 28.9 8.6 28.9 8.6 20.7 11.1 20.7" class="st7"/><path d="M19.4,30.5" class="st7"/></g><line x1="41.9" x2="57.3" y1="11.5" y2="11.5" class="st7"/></g></svg>