<svg xmlns="http://www.w3.org/2000/svg" xmlns:xlink="http://www.w3.org/1999/xlink" id="Layer_1" x="0" y="0" enable-background="new 0 0 150 150" version="1.1" viewBox="0 0 150 150" xml:space="preserve"><style type="text/css">.st0{fill:none;stroke:#151b26;stroke-width:2;stroke-linecap:round;stroke-linejoin:round;stroke-miterlimit:10}</style><g><path d="M61.6,93.1" class="st0"/><path d="M61.5,53" class="st0"/><g><path d="M90,68.3" class="st0"/><path d="M48.2,62.7c-1.9-3.9-3-8.3-3-13C45.2,33.3,58.5,20,74.9,20s29.7,13.3,29.7,29.7c0,4.8-1.1,9.3-3.1,13.2" class="st0"/><polyline points="101.4 63 74.9 101.6 48.2 62.7" class="st0"/><path d="M75.7,26.7c12.4,0,22.4,10,22.4,22.4" class="st0"/><path d="M63.8,36.7c3-2.5,6.9-4,11.1-4c9.5,0,17.2,7.7,17.2,17.2s-7.7,17.2-17.2,17.2s-17.2-7.7-17.2-17.2 c0-3,0.8-5.9,2.2-8.4" class="st0"/><line x1="74.1" x2="81.3" y1="84.9" y2="92.2" class="st0"/><line x1="69.6" x2="66.1" y1="80.2" y2="76.6" class="st0"/><path d="M86.5,84c-1-1-6.4-6.4-7.4-7.4" class="st0"/></g><polyline points="59.8 91.7 59.8 123 29.3 129.9 29.3 73.8 43.9 70.5" class="st0"/><line x1="90.2" x2="90.2" y1="129.9" y2="107.4" class="st0"/><line x1="89.9" x2="89.9" y1="98.8" y2="92" class="st0"/><path d="M90.2,117.4" class="st0"/><polyline points="104 70.6 120.7 66.8 120.7 123 90.2 129.9" class="st0"/><line x1="90.2" x2="59.7" y1="129.9" y2="123" class="st0"/><line x1="112.9" x2="112.9" y1="76.6" y2="103.1" class="st0"/><line x1="112.9" x2="112.9" y1="112" y2="124.7" class="st0"/><line x1="36.8" x2="36.8" y1="80.2" y2="92" class="st0"/><line x1="36.8" x2="36.8" y1="100.2" y2="128.2" class="st0"/></g></svg>