<svg xmlns="http://www.w3.org/2000/svg" xmlns:xlink="http://www.w3.org/1999/xlink" id="Layer_1" x="0" y="0" enable-background="new 0 0 150 150" version="1.1" viewBox="0 0 150 150" xml:space="preserve"><style type="text/css">.st0{fill:none;stroke:#21c87a;stroke-width:2;stroke-linecap:round;stroke-linejoin:round;stroke-miterlimit:10}</style><g><g><rect width="41.9" height="28.6" x="18.9" y="95.1" class="st0"/><polyline points="25.4 95.1 25.4 112.4 27.9 114.3 30.4 112.4 30.4 95.1" class="st0"/><polyline points="49.5 95.1 49.5 112.4 52 114.3 54.5 112.4 54.5 95.1" class="st0"/><rect width="7.2" height="6.5" x="36.4" y="103.5" class="st0"/><line x1="24.4" x2="18.9" y1="106.7" y2="106.7" class="st0"/><line x1="60.8" x2="55.6" y1="106.7" y2="106.7" class="st0"/><line x1="48.4" x2="43.5" y1="106.7" y2="106.7" class="st0"/><line x1="36.4" x2="31.5" y1="106.7" y2="106.7" class="st0"/><polyline points="46.1 95.1 46.1 88.8 33.7 88.8 33.7 95.1" class="st0"/></g><g><line x1="98.5" x2="95.4" y1="47.3" y2="50.5" class="st0"/><polyline points="98.6 64.2 126.8 36 133.1 42.3 133.1 21.2 112 21.2 118.3 27.5 101.9 43.9" class="st0"/></g><g><line x1="53.5" x2="51.8" y1="70.6" y2="72.3" class="st0"/><polyline points="48.6 58.6 71.6 35.6 65.3 29.3 86.3 29.3 86.3 50.4 80 44.1 57.4 66.7" class="st0"/></g><polyline points="135.4 57.6 119.4 57.6 119.4 75.4 101.5 75.4 101.5 93.2 83.6 93.2 83.6 111 65.7 111 65.7 128.8 14.6 128.8" class="st0"/></g></svg>