<svg xmlns="http://www.w3.org/2000/svg" xmlns:xlink="http://www.w3.org/1999/xlink" id="c1beeda2-3973-4ae6-86a9-52f16471172f" x="0" y="0" enable-background="new 0 0 901.9 681" version="1.1" viewBox="0 0 901.9 681" xml:space="preserve"><style type="text/css">.st0{opacity:.5;fill:#e3e6f0;enable-background:new}.st1{fill:#4d8af0}.st2{fill:#eee}.st3{fill:#e0e0e0}.st4{opacity:.5}.st5{fill:url(#SVGID_1_)}.st6{fill:#fda57d}.st7{opacity:.1;enable-background:new}.st8{fill:#fff}.st9{fill:#333}.st10{fill:#f55f44}.st11{fill:url(#SVGID_2_)}.st12{fill:#21c87a}.st13{opacity:.2;enable-background:new}.st14{fill:url(#SVGID_3_)}.st15{fill:url(#SVGID_4_)}.st16{fill:url(#SVGID_5_)}.st17{fill:url(#SVGID_6_)}.st18{opacity:.2}.st19{fill:url(#SVGID_7_)}.st20{opacity:.3}.st21{fill:url(#SVGID_8_)}.st22{fill:url(#SVGID_9_)}.st23{fill:url(#SVGID_10_)}.st24{fill:url(#SVGID_11_)}.st25{fill:url(#SVGID_12_)}.st26{fill:url(#SVGID_13_)}.st27{fill:url(#SVGID_14_)}.st28{fill:url(#SVGID_15_)}.st29{fill:url(#SVGID_16_)}.st30{fill:url(#SVGID_17_)}.st31{fill:url(#SVGID_18_)}.st32{fill:url(#SVGID_19_)}.st33{fill:url(#SVGID_20_)}.st34{fill:url(#SVGID_21_)}</style><ellipse cx="451.4" cy="620.1" class="st0" rx="450.5" ry="60.9"/><title>news</title><rect width="75.4" height="11.4" x="17.6" y="224.7" class="st1"/><polygon points="17.6 235.9 9.1 622 14.4 622 26.2 236.1" class="st2"/><polygon points="92.9 235.9 101.5 622 96.1 622 84.3 236.1" class="st2"/><polygon points="33.6 236.1 24.5 622 30.9 622 39.3 235.9" class="st3"/><polygon points="78.5 236.1 87.6 622 81.2 622 72.8 235.9" class="st3"/><rect width="48.5" height="5.9" x="32" y="575.1" class="st3"/><rect width="52.2" height="5.9" x="30.4" y="542.6" class="st3"/><rect width="50.6" height="5.9" x="32" y="510.7" class="st3"/><rect width="48.5" height="5.9" x="32" y="478.2" class="st3"/><rect width="48.5" height="5.3" x="32" y="444.6" class="st3"/><rect width="46.9" height="6.4" x="33.6" y="412.7" class="st3"/><rect width="45.3" height="4.3" x="33.6" y="380.7" class="st3"/><rect width="40" height="6.9" x="35.2" y="346.6" class="st3"/><rect width="41.5" height="5.9" x="35.2" y="314.7" class="st3"/><rect width="41.5" height="6.4" x="35.2" y="281.7" class="st3"/><rect width="37.8" height="6.4" x="37.3" y="249.2" class="st3"/><rect width="110.8" height="23.4" y="202.8" class="st1"/><g class="st4"><linearGradient id="SVGID_1_" x1="214.755" x2="214.755" y1="276.1" y2="445" gradientTransform="matrix(1 0 0 -1 -149.07 483)" gradientUnits="userSpaceOnUse"><stop offset="0" stop-color="gray" stop-opacity=".25"/><stop offset=".54" stop-color="gray" stop-opacity=".12"/><stop offset="1" stop-color="gray" stop-opacity=".1"/></linearGradient><path d="M104.9,38L66.4,63.1c-0.4-1.6-1.3-2.9-2.5-3.9c0.5-1.2,0.5-2.5,0.2-3.8c-0.1-0.4-0.2-0.7-0.4-1 c-0.4-0.4-1-0.5-1.5-0.4l-6.1,0.4c-0.7,0-1.4,0.2-2,0.6c-0.9,0.7-1.1,2.2-2,2.9c-0.6,0.4-1.3,0.4-2,0.7c-1.4,0.8-1.7,3-1.8,4.8 c-0.1,2.5-0.1,5.4,1.5,7c1.2,1.1,2.8,1,4.3,0.9l1.5-0.1c0.4,0.2,0.8,0.4,1.2,0.6v2.1h-0.3c0,0-17.3-5-36.2,47.2h-0.3 c0,0-2.8,9.5,1.7,7.8c3.9-1.5,4-6.3,3.9-7.5h0.3c0,0,7.8-22.9,20.1-25.7c0,0,8.9,11.2-5.6,33.5h11.4c0,2.5,0.5,5,1.5,7.3 c3.4,6.7-6.7,70.4-6.7,70.4h8.4l4.2-21.1l0.5,21.1h6.1l6.2-40.6l-0.8-48.9v-12.7l1.1,1.5V86.6h16.2l2.8-21.8h-0.3 c0.1-1.5,0-3-0.2-4.6l20.9-4.4C114.9,41.9,104.9,38,104.9,38z M86.6,65.2l-4.9,12.5c0,0-13.4-6.1-18.4-3.9H63v-2.7 c2.1-1.2,3.4-3.4,3.6-5.8l20.1-4.2C86.5,62.4,86.5,63.8,86.6,65.2L86.6,65.2z" class="st5"/></g><path d="M89.7,68.4c0,0,0.6-9.2-2.2-7.2s-1.6,7.8-1.6,7.8L89.7,68.4z" class="st6"/><path d="M22.1,121.1c0,0-2.7,9,1.6,7.5s3.7-7.5,3.7-7.5H22.1z" class="st6"/><rect width="5.9" height="5.3" x="57.3" y="72.6" class="st6"/><rect width="4.8" height="24" x="52.5" y="101.9" class="st1"/><rect width="4.8" height="24" x="52.5" y="101.9" class="st7"/><path d="M59.5,76.1h5.5c3.2,0,5.8,2.6,5.8,5.8v35.8l0,0h-17l0,0V81.8C53.8,78.7,56.4,76.1,59.5,76.1z" class="st8"/><circle cx="59.7" cy="67.5" r="6.9" class="st6"/><path d="M57,76.1c0,0-16.5-4.8-34.6,45.3h5.3c0,0,7.5-21.8,19.2-24.5c0,0,8.5,10.6-5.3,32h11.2v-7.1	c-0.1-10.8,1.3-21.6,4-32.1C58,85.2,58.1,80.5,57,76.1z" class="st1"/><path d="M63.4,76.1v1.6c0,0,3.7,16.5,6.9,27.2l1.6,2.2V88.3h15.4L90,67.6h-4.3l-4.9,12.2C80.9,79.8,68.2,73.9,63.4,76.1	z" class="st1"/><path d="M53.8,117.6c0,0-3.2,11.7,0,18.1s-6.4,67.1-6.4,67.1h8l11.4-57.3l1.9-28L53.8,117.6z" class="st9"/><polygon points="70.8 117.6 71.6 164.2 65.8 202.8 59.9 202.8 57.8 117.6" class="st9"/><path d="M58.5,64.9c0.1-0.2,0.3-0.4,0.5-0.6c0.2-0.1,0.4-0.2,0.7-0.2c1.4-0.1,3.1-0.1,4-1.5c0.6-1.2,0.8-2.7,0.4-4	c0-0.4-0.2-0.7-0.4-1c-0.4-0.4-0.9-0.5-1.4-0.4l-5.8,0.4c-0.7,0-1.3,0.2-1.9,0.6c-0.8,0.7-1.1,2.1-1.9,2.7c-0.6,0.4-1.3,0.4-1.9,0.7	c-1.3,0.7-1.6,2.8-1.7,4.6c-0.1,2.4-0.1,5.2,1.4,6.6c1.1,1.1,2.7,1,4.1,0.9l2.7-0.2c0.3,0,0.5-0.1,0.8-0.2c0.3-0.5,0.5-1,0.4-1.6	c-0.1-1.3-0.2-2.9-1.1-3.7c-0.2-0.2-0.4-0.3-0.6-0.5C55.8,65.9,58,65.6,58.5,64.9z" class="st9"/><path d="M103.1,42c0,0,9.6,3.7,6.4,17l-43.1,9.1v-2.1L103.1,42z" class="st10"/><rect width="75.1" height="2.1" x="17.8" y="226" class="st7"/><rect width="5.9" height="1.1" x="30.1" y="376.2" class="st7"/><rect width="5.9" height="1.1" x="75.9" y="376.2" class="st7"/><rect width="75.1" height="9" x="17.6" y="367.4" class="st2"/><linearGradient id="SVGID_2_" x1="386.666" x2="386.666" y1="116.356" y2="131.476" gradientTransform="matrix(0.9979 -6.540313e-02 -6.540313e-02 -0.9979 -235.9093 191.0951)" gradientUnits="userSpaceOnUse"><stop offset="0" stop-color="gray" stop-opacity=".25"/><stop offset=".54" stop-color="gray" stop-opacity=".12"/><stop offset="1" stop-color="gray" stop-opacity=".1"/></linearGradient><polygon points="151.1 38.3 151.9 38 151.7 38 151.8 37.9 151.7 37.9 131 35.3 131.5 42.1 132.1 48.2 133.4 47.5 134.6 50.2" class="st11"/><polygon points="132.2 42 132.8 47.5 151.2 38.2 135.2 38.5" class="st12"/><polygon points="132.2 42 132.8 47.5 151.2 38.2 135.2 38.5" class="st13"/><polygon points="131.8 35.7 151.2 38.2 132.2 42" class="st12"/><polygon points="135 49.4 151.1 38.1 132.5 43.7" class="st12"/><linearGradient id="SVGID_3_" x1="488.39" x2="488.39" y1="138.336" y2="153.457" gradientTransform="matrix(0.9979 -6.540313e-02 -6.540313e-02 -0.9979 -235.9093 191.0951)" gradientUnits="userSpaceOnUse"><stop offset="0" stop-color="gray" stop-opacity=".25"/><stop offset=".54" stop-color="gray" stop-opacity=".12"/><stop offset="1" stop-color="gray" stop-opacity=".1"/></linearGradient><polygon points="251.2 9.8 252 9.4 251.8 9.4 251.9 9.3 251.7 9.4 231.1 6.7 231.5 13.5 232.2 19.6 233.5 18.9 234.6 21.6" class="st14"/><polygon points="232.2 13.4 232.8 18.9 251.3 9.6 235.3 9.9" class="st12"/><polygon points="232.2 13.4 232.8 18.9 251.3 9.6 235.3 9.9" class="st13"/><polygon points="231.8 7.1 251.3 9.6 232.2 13.4" class="st12"/><polygon points="235.1 20.8 251.2 9.5 232.6 15.1" class="st12"/><linearGradient id="SVGID_4_" x1="711.474" x2="711.474" y1="185.416" y2="208.515" gradientTransform="matrix(0.9725 -0.2331 -0.2331 -0.9725 -232.4928 366.284)" gradientUnits="userSpaceOnUse"><stop offset="0" stop-color="gray" stop-opacity=".25"/><stop offset=".54" stop-color="gray" stop-opacity=".12"/><stop offset="1" stop-color="gray" stop-opacity=".1"/></linearGradient><polygon points="426.5 .8 427.6 .1 427.3 .1 427.4 0 427.2 .1 395.4 1.4 397.9 11.6 400.4 20.5 402.2 19.2 404.6 22.9" class="st15"/><polygon points="398.9 11.2 401.2 19.4 426.6 .5 402.6 5.2" class="st12"/><polygon points="398.9 11.2 401.2 19.4 426.6 .5 402.6 5.2" class="st13"/><polygon points="396.7 1.9 426.6 .5 398.9 11.2" class="st12"/><polygon points="405.1 21.6 426.4 .5 399.8 13.6" class="st12"/><linearGradient id="SVGID_5_" x1="521.395" x2="521.395" y1="-11.491" y2="3.625" gradientTransform="matrix(0.9842 0.1771 0.1771 -0.9842 -180.2623 -36.3644)" gradientUnits="userSpaceOnUse"><stop offset="0" stop-color="gray" stop-opacity=".25"/><stop offset=".54" stop-color="gray" stop-opacity=".12"/><stop offset="1" stop-color="gray" stop-opacity=".1"/></linearGradient><polygon points="342.2 58.4 343 58.2 342.8 58.2 342.9 58.1 342.8 58.1 323.4 50.6 322.2 57.3 321.3 63.3 322.7 63 323.2 65.9" class="st16"/><polygon points="322.9 57.3 322.1 62.9 342.3 58.3 326.6 54.7" class="st12"/><polygon points="322.9 57.3 322.1 62.9 342.3 58.3 326.6 54.7" class="st13"/><polygon points="324 51.2 342.3 58.3 322.9 57.3" class="st12"/><polygon points="323.9 65.2 342.2 58.2 322.8 59" class="st12"/><g class="st4"><linearGradient id="SVGID_6_" x1="457.505" x2="457.505" y1="20.246" y2="35.366" gradientTransform="matrix(0.9979 -6.540313e-02 -6.540313e-02 -0.9979 -235.9093 191.0951)" gradientUnits="userSpaceOnUse"><stop offset="0" stop-color="gray" stop-opacity=".25"/><stop offset=".54" stop-color="gray" stop-opacity=".12"/><stop offset="1" stop-color="gray" stop-opacity=".1"/></linearGradient><polygon points="228.1 129.6 228.9 129.2 228.7 129.2 228.8 129.2 228.6 129.2 208 126.5 208.4 133.4 209.1 139.4 210.4 138.8 211.5 141.5" class="st17"/><polygon points="209.1 133.3 209.7 138.8 228.2 129.4 212.2 129.8" class="st12"/><polygon points="209.1 133.3 209.7 138.8 228.2 129.4 212.2 129.8" class="st13"/><polygon points="208.7 127 228.2 129.4 209.1 133.3" class="st12"/><polygon points="212 140.6 228.1 129.4 209.5 134.9" class="st12"/></g><g class="st18"><linearGradient id="SVGID_7_" x1="727.359" x2="727.359" y1="143.156" y2="166.265" gradientTransform="matrix(0.9725 -0.2331 -0.2331 -0.9725 -232.4928 366.284)" gradientUnits="userSpaceOnUse"><stop offset="0" stop-color="gray" stop-opacity=".25"/><stop offset=".54" stop-color="gray" stop-opacity=".12"/><stop offset="1" stop-color="gray" stop-opacity=".1"/></linearGradient><polygon points="451.8 38.2 452.9 37.5 452.6 37.5 452.7 37.4 452.5 37.5 420.7 38.8 423.2 49 425.7 57.9 427.5 56.6 429.9 60.3" class="st19"/><polygon points="424.2 48.6 426.5 56.8 451.9 37.9 427.9 42.6" class="st12"/><polygon points="424.2 48.6 426.5 56.8 451.9 37.9 427.9 42.6" class="st13"/><polygon points="422 39.3 451.9 37.9 424.2 48.6" class="st12"/><polygon points="430.4 59 451.7 37.9 425.1 51" class="st12"/></g><g class="st20"><linearGradient id="SVGID_8_" x1="783.805" x2="783.805" y1="15.426" y2="38.535" gradientTransform="matrix(0.9725 -0.2331 -0.2331 -0.9725 -232.4928 366.284)" gradientUnits="userSpaceOnUse"><stop offset="0" stop-color="gray" stop-opacity=".25"/><stop offset=".54" stop-color="gray" stop-opacity=".12"/><stop offset="1" stop-color="gray" stop-opacity=".1"/></linearGradient><polygon points="536.5 149.3 537.5 148.5 537.3 148.5 537.3 148.4 537.2 148.5 505.4 149.8 507.9 160 510.4 169 512.1 167.7 514.6 171.4" class="st21"/><polygon points="508.9 159.6 511.2 167.8 536.6 149 512.5 153.7" class="st12"/><polygon points="508.9 159.6 511.2 167.8 536.6 149 512.5 153.7" class="st13"/><polygon points="506.6 150.3 536.6 149 508.9 159.6" class="st12"/><polygon points="515.1 170 536.4 148.9 509.8 162.1" class="st12"/></g><g class="st20"><linearGradient id="SVGID_9_" x1="1025.499" x2="1025.499" y1="-99.034" y2="-75.928" gradientTransform="matrix(0.9725 -0.2331 -0.2331 -0.9725 -232.4928 366.284)" gradientUnits="userSpaceOnUse"><stop offset="0" stop-color="gray" stop-opacity=".25"/><stop offset=".54" stop-color="gray" stop-opacity=".12"/><stop offset="1" stop-color="gray" stop-opacity=".1"/></linearGradient><polygon points="798.2 204.3 799.3 203.5 799 203.5 799.1 203.4 798.9 203.5 767.1 204.8 769.6 215 772.1 224 773.8 222.6 776.3 226.4" class="st22"/><polygon points="770.6 214.6 772.9 222.8 798.3 204 774.2 208.6" class="st12"/><polygon points="770.6 214.6 772.9 222.8 798.3 204 774.2 208.6" class="st13"/><polygon points="768.3 205.3 798.3 204 770.6 214.6" class="st12"/><polygon points="776.8 225 798.1 203.9 771.5 217.1" class="st12"/></g><g class="st4"><linearGradient id="SVGID_10_" x1="540.416" x2="540.416" y1="-98.569" y2="-83.453" gradientTransform="matrix(0.9842 0.1771 0.1771 -0.9842 -180.2623 -36.3644)" gradientUnits="userSpaceOnUse"><stop offset="0" stop-color="gray" stop-opacity=".25"/><stop offset=".54" stop-color="gray" stop-opacity=".12"/><stop offset="1" stop-color="gray" stop-opacity=".1"/></linearGradient><polygon points="345.5 147.5 346.3 147.3 346.1 147.2 346.2 147.2 346.1 147.2 326.7 139.6 325.5 146.4 324.6 152.4 326 152.1 326.5 155" class="st23"/><polygon points="326.2 146.4 325.4 151.9 345.6 147.3 329.9 143.8" class="st12"/><polygon points="326.2 146.4 325.4 151.9 345.6 147.3 329.9 143.8" class="st13"/><polygon points="327.3 140.3 345.6 147.3 326.2 146.4" class="st12"/><polygon points="327.2 154.3 345.5 147.2 326.1 148.1" class="st12"/></g><g class="st4"><linearGradient id="SVGID_11_" x1="917.487" x2="917.487" y1="-163.683" y2="-148.567" gradientTransform="matrix(0.9842 0.1771 0.1771 -0.9842 -180.2623 -36.3644)" gradientUnits="userSpaceOnUse"><stop offset="0" stop-color="gray" stop-opacity=".25"/><stop offset=".54" stop-color="gray" stop-opacity=".12"/><stop offset="1" stop-color="gray" stop-opacity=".1"/></linearGradient><polygon points="705 278.3 705.9 278.1 705.7 278.1 705.8 278.1 705.6 278.1 686.3 270.5 685 277.2 684.2 283.3 685.6 282.9 686.1 285.8" class="st24"/><polygon points="685.7 277.3 685 282.8 705.2 278.2 689.5 274.7" class="st12"/><polygon points="685.7 277.3 685 282.8 705.2 278.2 689.5 274.7" class="st13"/><polygon points="686.8 271.1 705.2 278.2 685.7 277.3" class="st12"/><polygon points="686.8 285.1 705 278.1 685.7 279" class="st12"/></g><g class="st4"><linearGradient id="SVGID_12_" x1="871.307" x2="871.307" y1="-31.207" y2="-16.092" gradientTransform="matrix(0.9842 0.1771 0.1771 -0.9842 -180.2623 -36.3644)" gradientUnits="userSpaceOnUse"><stop offset="0" stop-color="gray" stop-opacity=".25"/><stop offset=".54" stop-color="gray" stop-opacity=".12"/><stop offset="1" stop-color="gray" stop-opacity=".1"/></linearGradient><polygon points="683 139.8 683.9 139.6 683.7 139.5 683.8 139.5 683.7 139.5 664.3 131.9 663 138.7 662.2 144.7 663.6 144.4 664.1 147.3" class="st25"/><polygon points="663.8 138.7 663 144.2 683.2 139.6 667.5 136.1" class="st12"/><polygon points="663.8 138.7 663 144.2 683.2 139.6 667.5 136.1" class="st13"/><polygon points="664.9 132.6 683.2 139.6 663.8 138.7" class="st12"/><polygon points="664.8 146.6 683.1 139.5 663.7 140.4" class="st12"/></g><g class="st18"><linearGradient id="SVGID_13_" x1="1030.515" x2="1030.515" y1="114.754" y2="129.868" gradientTransform="matrix(0.9842 0.1771 0.1771 -0.9842 -180.2623 -36.3644)" gradientUnits="userSpaceOnUse"><stop offset="0" stop-color="gray" stop-opacity=".25"/><stop offset=".54" stop-color="gray" stop-opacity=".12"/><stop offset="1" stop-color="gray" stop-opacity=".1"/></linearGradient><polygon points="865.6 24.3 866.4 24.1 866.3 24.1 866.3 24 866.2 24 846.8 16.5 845.6 23.2 844.8 29.3 846.2 28.9 846.7 31.8" class="st26"/><polygon points="846.3 23.3 845.5 28.8 865.7 24.2 850.1 20.6" class="st12"/><polygon points="846.3 23.3 845.5 28.8 865.7 24.2 850.1 20.6" class="st13"/><polygon points="847.4 17.1 865.7 24.2 846.3 23.3" class="st12"/><polygon points="847.3 31.1 865.6 24.1 846.2 25" class="st12"/></g><g class="st18"><linearGradient id="SVGID_14_" x1="372.627" x2="372.627" y1="-41.611" y2="-26.495" gradientTransform="matrix(0.9842 0.1771 0.1771 -0.9842 -180.2623 -36.3644)" gradientUnits="userSpaceOnUse"><stop offset="0" stop-color="gray" stop-opacity=".25"/><stop offset=".54" stop-color="gray" stop-opacity=".12"/><stop offset="1" stop-color="gray" stop-opacity=".1"/></linearGradient><polygon points="190.4 61.7 191.2 61.5 191.1 61.5 191.1 61.4 191 61.4 171.6 53.9 170.4 60.6 169.6 66.6 171 66.3 171.5 69.2" class="st27"/><polygon points="171.1 60.7 170.4 66.2 190.5 61.5 174.9 58" class="st12"/><polygon points="171.1 60.7 170.4 66.2 190.5 61.5 174.9 58" class="st13"/><polygon points="172.2 54.5 190.5 61.5 171.1 60.7" class="st12"/><polygon points="172.1 68.5 190.4 61.5 171 62.3" class="st12"/></g><linearGradient id="SVGID_15_" x1="811.44" x2="811.44" y1="83.676" y2="106.782" gradientTransform="matrix(0.9979 -6.540313e-02 -6.540313e-02 -0.9979 -235.9093 191.0951)" gradientUnits="userSpaceOnUse"><stop offset="0" stop-color="gray" stop-opacity=".25"/><stop offset=".54" stop-color="gray" stop-opacity=".12"/><stop offset="1" stop-color="gray" stop-opacity=".1"/></linearGradient><polygon points="581.8 37.2 583 36.6 582.7 36.6 582.8 36.5 582.6 36.5 551.1 32.5 551.8 42.9 552.7 52.2 554.7 51.2 556.5 55.3" class="st28"/><polygon points="552.8 42.7 553.7 51.2 581.9 36.9 557.4 37.4" class="st12"/><polygon points="552.8 42.7 553.7 51.2 581.9 36.9 557.4 37.4" class="st13"/><polygon points="552.2 33.2 581.9 36.9 552.8 42.7" class="st12"/><polygon points="557.2 54 581.8 36.8 553.3 45.3" class="st12"/><linearGradient id="SVGID_16_" x1="752.818" x2="752.818" y1="-319.869" y2="-267.014" gradientTransform="matrix(0.8905 0.4551 0.4551 -0.8905 83.68 -410.4554)" gradientUnits="userSpaceOnUse"><stop offset="0" stop-color="gray" stop-opacity=".25"/><stop offset=".54" stop-color="gray" stop-opacity=".12"/><stop offset="1" stop-color="gray" stop-opacity=".1"/></linearGradient><polygon points="655.3 198.8 658.2 199 657.7 198.6 658 198.6 657.6 198.5 600.4 153.5 589.5 174.8 580.6 194.1 585.5 194.4 584.3 204.6" class="st29"/><polygon points="591.8 175.6 583.6 193.3 655.8 198.3 607.1 170.7" class="st12"/><polygon points="591.8 175.6 583.6 193.3 655.8 198.3 607.1 170.7" class="st13"/><polygon points="601.7 156.1 655.8 198.3 591.8 175.6" class="st12"/><polygon points="587.2 203 655.6 198 589.7 181.2" class="st12"/><linearGradient id="SVGID_17_" x1="949.107" x2="949.107" y1="-504.59" y2="-394.21" gradientTransform="matrix(0.9 0.43 0.43 -0.9 161.12 -451.29)" gradientUnits="userSpaceOnUse"><stop offset="0" stop-color="gray" stop-opacity=".25"/><stop offset=".54" stop-color="gray" stop-opacity=".12"/><stop offset="1" stop-color="gray" stop-opacity=".1"/></linearGradient><polygon points="895.7 369.1 901.9 369.3 900.8 368.5 901.3 368.5 900.5 368.3 778.3 278 756.9 323.2 739.5 364.1 749.9 364.5 747.9 385.7" class="st30"/><polygon points="761.7 324.8 745.9 362.3 896.8 368.1 793.3 313.5" class="st12"/><polygon points="761.7 324.8 745.9 362.3 896.8 368.1 793.3 313.5" class="st13"/><polygon points="781.3 283.5 896.8 368.1 761.7 324.8" class="st12"/><polygon points="753.8 382.2 896.3 367.4 757.8 336.6" class="st12"/><linearGradient id="SVGID_18_" x1="988.562" x2="988.562" y1="47.256" y2="100.078" gradientTransform="matrix(1 -1.000000e-02 -1.000000e-02 -1 -230.04 124.52)" gradientUnits="userSpaceOnUse"><stop offset="0" stop-color="gray" stop-opacity=".25"/><stop offset=".54" stop-color="gray" stop-opacity=".12"/><stop offset="1" stop-color="gray" stop-opacity=".1"/></linearGradient><polygon points="791.1 25.2 793.8 24 793.1 23.9 793.3 23.8 793 23.9 721.3 10.8 721.7 34.8 722.9 56.1 727.4 54 731 63.6" class="st31"/><polygon points="724.1 34.5 725.2 53.9 791.3 24.6 735.3 22.9" class="st12"/><polygon points="724.1 34.5 725.2 53.9 791.3 24.6 735.3 22.9" class="st13"/><polygon points="723.8 12.6 791.3 24.6 724.1 34.5" class="st12"/><polygon points="732.8 60.8 791 24.4 724.9 40.3" class="st12"/><linearGradient id="SVGID_19_" x1="1063.632" x2="1063.632" y1="-34.094" y2="18.728" gradientTransform="matrix(1 -1.000000e-02 -1.000000e-02 -1 -230.04 124.52)" gradientUnits="userSpaceOnUse"><stop offset="0" stop-color="gray" stop-opacity=".25"/><stop offset=".54" stop-color="gray" stop-opacity=".12"/><stop offset="1" stop-color="gray" stop-opacity=".1"/></linearGradient><polygon points="866.9 105.5 869.6 104.3 869 104.2 869.2 104 868.8 104.1 797.2 91.1 797.6 115.1 798.7 136.3 803.3 134.3 806.9 143.8" class="st32"/><polygon points="800 114.7 801.1 134.2 867.2 104.8 811.2 103.2" class="st12"/><polygon points="800 114.7 801.1 134.2 867.2 104.8 811.2 103.2" class="st13"/><polygon points="799.7 92.8 867.2 104.8 800 114.7" class="st12"/><polygon points="808.7 141.1 866.8 104.6 800.8 120.6" class="st12"/><linearGradient id="SVGID_20_" x1="708.236" x2="708.236" y1="26.756" y2="49.861" gradientTransform="matrix(0.9979 -6.540313e-02 -6.540313e-02 -0.9979 -235.9093 191.0951)" gradientUnits="userSpaceOnUse"><stop offset="0" stop-color="gray" stop-opacity=".25"/><stop offset=".54" stop-color="gray" stop-opacity=".12"/><stop offset="1" stop-color="gray" stop-opacity=".1"/></linearGradient><polygon points="482.5 100.7 483.7 100.1 483.4 100.1 483.5 100.1 483.3 100.1 451.8 96 452.5 106.5 453.5 115.7 455.4 114.7 457.2 118.8" class="st33"/><polygon points="453.5 106.3 454.5 114.7 482.6 100.4 458.2 101" class="st12"/><polygon points="453.5 106.3 454.5 114.7 482.6 100.4 458.2 101" class="st13"/><polygon points="452.9 96.7 482.6 100.4 453.5 106.3" class="st12"/><polygon points="457.9 117.6 482.5 100.4 454 108.8" class="st12"/><linearGradient id="SVGID_21_" x1="898.996" x2="898.996" y1="28.576" y2="51.681" gradientTransform="matrix(0.9979 -6.540313e-02 -6.540313e-02 -0.9979 -235.9093 191.0951)" gradientUnits="userSpaceOnUse"><stop offset="0" stop-color="gray" stop-opacity=".25"/><stop offset=".54" stop-color="gray" stop-opacity=".12"/><stop offset="1" stop-color="gray" stop-opacity=".1"/></linearGradient><polygon points="672.8 86.4 673.9 85.8 673.7 85.8 673.8 85.8 673.6 85.8 642 81.7 642.7 92.2 643.7 101.4 645.7 100.4 647.5 104.5" class="st34"/><polygon points="643.8 92 644.7 100.4 672.9 86.2 648.4 86.7" class="st12"/><polygon points="643.8 92 644.7 100.4 672.9 86.2 648.4 86.7" class="st13"/><polygon points="643.2 82.4 672.9 86.2 643.8 92" class="st12"/><polygon points="648.2 103.3 672.7 86.1 644.3 94.5" class="st12"/></svg>