<svg xmlns="http://www.w3.org/2000/svg" xmlns:xlink="http://www.w3.org/1999/xlink" id="Layer_1" x="0" y="0" enable-background="new 0 0 150 150" version="1.1" viewBox="0 0 150 150" xml:space="preserve"><style type="text/css">.st0{fill:none;stroke:#151b26;stroke-width:2;stroke-linecap:round;stroke-linejoin:round;stroke-miterlimit:10}</style><g><g><g><line x1="122.2" x2="122.2" y1="89.2" y2="98.4" class="st0"/><path d="M27.5,98.4V47.5c0-2.4,1.9-4.3,4.3-4.3h86c2.4,0,4.3,1.9,4.3,4.3v9.6" class="st0"/><line x1="115.7" x2="115.7" y1="89.2" y2="98.6" class="st0"/><polyline points="34 98.6 34 50.3 115.7 50.3 115.7 57.1" class="st0"/><path d="M88.3,98.7v2.4H61.4v-2.4H14.5c0,0,6.6,8.2,12.4,8.2h95.9c5.4,0,11.1-8.2,11.1-8.2H88.3z" class="st0"/></g></g><line x1="44.2" x2="70.4" y1="66.6" y2="66.6" class="st0"/><line x1="44.2" x2="70.4" y1="73.5" y2="73.5" class="st0"/><line x1="44.2" x2="55.5" y1="80.3" y2="80.3" class="st0"/><g><path d="M132.2,89.2h-41c-1.8,0-3.3-1.5-3.3-3.3V60.5c0-1.8,1.5-3.3,3.3-3.3h41c1.8,0,3.3,1.5,3.3,3.3v25.4 C135.5,87.7,134,89.2,132.2,89.2z" class="st0"/><line x1="135.5" x2="87.9" y1="64.5" y2="64.5" class="st0"/><line x1="135.5" x2="87.9" y1="72.4" y2="72.4" class="st0"/><line x1="99.4" x2="94.3" y1="78.2" y2="78.2" class="st0"/><line x1="104.8" x2="94.3" y1="83.4" y2="83.4" class="st0"/><rect width="9.2" height="5.2" x="120.1" y="78.2" class="st0"/></g></g></svg>