<svg xmlns="http://www.w3.org/2000/svg" xmlns:xlink="http://www.w3.org/1999/xlink" id="accd1a1b-d405-4dd1-89fa-f32239092656" x="0" y="0" enable-background="new 0 0 916.5 762" version="1.1" viewBox="0 0 916.5 762" xml:space="preserve"><style type="text/css">.st0{opacity:.1;fill:#151b26}.st1{fill:#fff}.st2{fill:#e3e6f0}.st3{fill:#796eff}.st4{fill:#21c87a}.st5{opacity:.5}.st6{fill:url(#SVGID_1_)}.st7{fill:#f55f44}.st8{fill:#fdd835}.st9{fill:#fda57d}.st10,.st11{opacity:.1;enable-background:new}.st11{opacity:5.000000e-02}.st12{fill:url(#SVGID_2_)}.st13{fill:#514abf}.st14{fill:url(#SVGID_3_)}.st15{fill:#fdb797}.st16{fill:none;stroke:#21c87a;stroke-width:6;stroke-miterlimit:10;stroke-dasharray:12}.st17{opacity:.1}.st18{fill:#151b26}.st19{fill:url(#SVGID_4_)}.st20{fill:url(#SVGID_5_)}.st21{fill:#3ad29f}.st22{fill:#be7c5e}.st23{fill:#444}.st24{fill:url(#SVGID_6_)}</style><title>real-time sync</title><path d="M93.8,198h129.3c5.5,0,10,4.5,10,10v251.9c0,5.5-4.5,10-10,10H93.8c-5.5,0-10-4.5-10-10V208	C83.8,202.5,88.2,198,93.8,198z" class="st0"/><path d="M97.2,202.5h122.4c5.5,0,10,4.5,10,10v241.1c0,5.5-4.5,10-10,10H97.2c-5.5,0-10-4.5-10-10V212.5	C87.2,206.9,91.7,202.5,97.2,202.5z" class="st1"/><rect width="110.3" height="212.5" x="103.8" y="220.5" class="st2" transform="matrix(1 -1.396262e-03 1.396262e-03 1 -0.4561 0.2223)"/><ellipse cx="159.1" cy="448.3" class="st2" rx="8.8" ry="9" transform="matrix(1 -1.396262e-03 1.396262e-03 1 -0.6259 0.2226)"/><ellipse cx="142.1" cy="210.6" class="st2" rx="1.8" ry="1.8" transform="matrix(1 -1.396262e-03 1.396262e-03 1 -0.2939 0.1986)"/><path d="M151,209.3l25.3,0c0.6,0,1,0.4,1,1l0,0.7c0,0.6-0.4,1-1,1l-25.3,0c-0.6,0-1-0.4-1-1l0-0.7	C150,209.7,150.5,209.3,151,209.3z" class="st2"/><rect width="62.4" height="65.6" x="127.8" y="343.8" class="st3"/><rect width="57" height="59.9" x="130.5" y="346.6" class="st4"/><g class="st5"><linearGradient id="SVGID_1_" x1="300.755" x2="300.755" y1="285.68" y2="342.55" gradientTransform="matrix(1 0 0 -1 -141.76 695)" gradientUnits="userSpaceOnUse"><stop offset="0" stop-color="gray" stop-opacity=".25"/><stop offset=".54" stop-color="gray" stop-opacity=".12"/><stop offset="1" stop-color="gray" stop-opacity=".1"/></linearGradient><path d="M163.3,373.7v-1.1h3v-5.8c2.8-4.3,1.6-10-2.6-12.8c-4.3-2.8-10-1.6-12.8,2.6c-1.9,2.9-2,6.7-0.3,9.8v6.2h3.3 v1.3c-8.3,2.3-14.1,9.9-14.1,18.5v16.9h38.5v-16.9C178.2,383.5,172,375.7,163.3,373.7z" class="st6"/></g><rect width="14.3" height="11.4" x="151.4" y="362" class="st7"/><path d="M154.5,374h9c7.1,0,12.9,5.8,12.9,12.9v19.8l0,0h-34.7l0,0v-19.8C141.6,379.7,147.4,374,154.5,374z" class="st8"/><path d="M157.5,368.3h2.2c1.7,0,3.1,1.4,3.1,3.1v4.3c0,1.7-1.4,3.1-3.1,3.1h-2.2c-1.7,0-3.1-1.4-3.1-3.1v-4.3	C154.4,369.7,155.8,368.3,157.5,368.3z" class="st9"/><polygon points="157 378.6 158.6 380.9 160.3 378.6" class="st9"/><path d="M148.1,387c0,0-1.7,16.8-0.6,17.9" class="st10"/><path d="M169,387c0,0,1.7,16.8,0.6,17.9" class="st10"/><path d="M158.6,373.5c1.5,0,3-0.5,4.2-1.4c-0.3-2.1-2.1-3.6-4.2-3.6l0,0c-2.1,0-3.9,1.5-4.2,3.6	C155.6,373,157.1,373.5,158.6,373.5z" class="st11"/><circle cx="158.6" cy="363.5" r="8.4" class="st7"/><circle cx="158.6" cy="366.2" r="7.1" class="st9"/><ellipse cx="151.5" cy="365.7" class="st9" rx=".5" ry=".9"/><ellipse cx="165.8" cy="365.7" class="st9" rx=".5" ry=".9"/><rect width="96.2" height="4.2" x="110.9" y="234.3" class="st1"/><rect width="96.2" height="4.2" x="110.9" y="242.6" class="st1"/><rect width="54.4" height="4.2" x="110.9" y="251" class="st1"/><rect width="79.5" height="4.2" x="110.9" y="259.4" class="st1"/><rect width="66.9" height="4.2" x="110.9" y="267.7" class="st1"/><rect width="96.2" height="4.2" x="110.9" y="276.1" class="st1"/><rect width="83.7" height="33.5" x="110.9" y="289.5" class="st1"/><path d="M705.5,457.1c0,0,14,96.2,96.2,128.1l-166.3,0.2l-166.3,0.2c82.1-32.2,95.8-128.4,95.8-128.4L705.5,457.1z" class="st2"/><rect width="335.7" height="20.3" x="467.4" y="585.5" class="st0" transform="matrix(1 -1.396262e-03 1.396262e-03 1 -0.8311 0.8876)"/><rect width="332.6" height="15.7" x="469.1" y="585.5" class="st4" transform="matrix(1 -1.396262e-03 1.396262e-03 1 -0.8278 0.8878)"/><path d="M905.2,111l-540.9,0.8c-6.1,0.1-11,5.2-10.8,11.4l0.4,315.6v10.5c0,24,18.6,43.4,41.5,43.4l479.6-0.7	c22.9,0,41.5-19.5,41.4-43.5v-10.5l-0.4-315.6C916.2,116.2,911.4,111.1,905.2,111C905.3,111,905.2,111,905.2,111z" class="st0"/><path d="M370.8,121.6h527.5c5.9,0,10.8,4.8,10.8,10.8l0,0v300.3l0,0H360l0,0V132.3C360,126.4,364.8,121.6,370.8,121.6	C370.8,121.6,370.8,121.6,370.8,121.6z" class="st1"/><path d="M871.4,482.6L399,483.2c-21.2,0-38.3-17.1-38.4-38.3v0v-13l549-0.8v13C909.7,465.3,892.6,482.5,871.4,482.6	C871.4,482.6,871.4,482.6,871.4,482.6z" class="st4"/><rect width="496.8" height="251.1" x="387.1" y="146.8" class="st2"/><rect width="87.9" height="92.3" x="753.2" y="163.3" class="st3"/><rect width="80.3" height="84.3" x="757" y="167.4" class="st4"/><g class="st5"><linearGradient id="SVGID_2_" x1="912.2" x2="963" y1="480.973" y2="480.973" gradientTransform="matrix(1 0 0 -1 -141.76 695)" gradientUnits="userSpaceOnUse"><stop offset="0" stop-color="gray" stop-opacity=".25"/><stop offset=".54" stop-color="gray" stop-opacity=".12"/><stop offset="1" stop-color="gray" stop-opacity=".1"/></linearGradient><path d="M802.7,204.8l-1-0.4l-0.1,0.1h-0.1v-2.7c0-0.3,0-0.7-0.1-1c1.6-1.2,2.9-2.8,3.6-4.7 c4.1-5.4,3.1-13.1-2.2-17.2s-13.1-3.1-17.2,2.2c-3.4,4.4-3.4,10.6,0,15c0.7,1.9,1.9,3.5,3.6,4.7c-0.1,0.3-0.1,0.7-0.1,1v3l0,0 c-11,3-18.7,13.1-18.7,24.5v22.3h50.8v-22.3C821.2,217.9,813.7,207.9,802.7,204.8z" class="st12"/></g><path d="M794.3,204.3h3.1c12.7,0,22.9,10.3,22.9,22.9l0,0v23l0,0h-49l0,0v-23C771.3,214.6,781.6,204.3,794.3,204.3	C794.3,204.3,794.3,204.3,794.3,204.3z" class="st13"/><path d="M795,196.3h0.8c3.1,0,5.6,2.5,5.6,5.6v3.8c0,3.1-2.5,5.6-5.6,5.6H795c-3.1,0-5.6-2.5-5.6-5.6v-3.8	C789.4,198.8,791.9,196.3,795,196.3z" class="st9"/><polygon points="785.2 206.9 789.2 215.6 793.2 211.6 789.2 205.4" class="st11"/><path d="M785.3,206.5l4,8.6l4-4l-4-6.1l-1.8,0.6c-0.2,0.1-0.4,0.1-0.5,0.2L785.3,206.5z" class="st1"/><polygon points="805.5 206.5 801.5 215.6 797.5 211.6 801.6 205.1" class="st11"/><path d="M805.4,206.1l-4,9l-4-4l4.1-6.5l0.8,0.2c0.8,0.2,1.6,0.5,2.4,0.9L805.4,206.1z" class="st1"/><polygon points="793 210.8 795.3 214.1 797.7 210.8" class="st9"/><path d="M780.6,222.6c0,0-2.4,23.7-0.8,25.2" class="st10"/><path d="M810,222.6c0,0,2.4,23.7,0.8,25.2" class="st10"/><path d="M795.3,203.6c2.1,0,4.2-0.7,5.9-1.9c-0.5-2.9-3-5-5.9-5l0,0c-2.9,0-5.5,2.1-5.9,5	C791.1,202.9,793.2,203.6,795.3,203.6z" class="st11"/><circle cx="795.3" cy="189.6" r="11.8"/><circle cx="795.3" cy="193.3" r="10" class="st9"/><path d="M787.3,183.4l2.5,3.1c0,0,11.1,1,12.3-1.5s-7.3-4.4-7.3-4.4L787.3,183.4z" class="st11"/><path d="M787.3,183.1l2.5,3.1c0,0,11.1,1,12.3-1.5s-7.3-4.4-7.3-4.4L787.3,183.1z"/><ellipse cx="785.3" cy="192.6" class="st9" rx=".7" ry="1.3"/><ellipse cx="805.4" cy="192.6" class="st9" rx=".7" ry="1.3"/><rect width="87.9" height="92.3" x="753.7" y="274.1" class="st3"/><rect width="80.3" height="84.3" x="757.5" y="278.1" class="st4"/><g class="st5"><linearGradient id="SVGID_3_" x1="939.52" x2="939.52" y1="328.4" y2="412.947" gradientTransform="matrix(1 0 0 -1 -141.76 695)" gradientUnits="userSpaceOnUse"><stop offset="0" stop-color="gray" stop-opacity=".25"/><stop offset=".54" stop-color="gray" stop-opacity=".12"/><stop offset="1" stop-color="gray" stop-opacity=".1"/></linearGradient><path d="M803.8,316.1V313c0-0.1,0-0.3,0-0.5c1.7-1.3,3-3,3.7-5c4.4-5.7,3.3-13.9-2.4-18.3c-0.9-0.7-2-1.3-3.1-1.8 c0.5-2.4-1-4.8-3.4-5.3c-2.4-0.5-4.8,1-5.3,3.4c-0.1,0.5-0.1,1.1-0.1,1.6c-6.9,2.1-10.8,9.4-8.6,16.3c0.5,1.5,1.2,2.9,2.1,4.1 c0.7,2,2,3.7,3.7,5c0,0.1,0,0.3,0,0.5v3.3c-11.5,2.2-19.8,12.3-19.9,24v26.3h54.1v-26.3C824.8,328.1,815.8,317.8,803.8,316.1z" class="st14"/></g><path d="M796.2,316.7h3.1c12.7,0,22.9,10.3,22.9,22.9v23l0,0h-49l0,0v-23C773.2,326.9,783.4,316.7,796.2,316.7	L796.2,316.7z" class="st1"/><path d="M796.8,308.7h0.8c3.1,0,5.6,2.5,5.6,5.6v3.8c0,3.1-2.5,5.6-5.6,5.6h-0.8c-3.1,0-5.6-2.5-5.6-5.6v-3.8	C791.2,311.2,793.7,308.7,796.8,308.7z" class="st15"/><polygon points="794.9 323.2 797.1 326.5 799.5 323.2" class="st15"/><path d="M782.4,335c0,0-2.4,23.7-0.8,25.2" class="st10"/><path d="M811.9,335c0,0,2.4,23.7,0.8,25.2" class="st10"/><path d="M797.2,315.9c2.1,0,4.2-0.7,5.9-1.9c-0.5-2.9-3-5-5.9-5l0,0c-3,0-5.5,2.1-6,5C793,315.3,795.1,316,797.2,315.9	z" class="st11"/><circle cx="797.2" cy="302" r="11.8" class="st8"/><circle cx="797.2" cy="305.7" r="10" class="st15"/><ellipse cx="787.2" cy="305" class="st15" rx=".7" ry="1.3"/><ellipse cx="807.2" cy="305" class="st15" rx=".7" ry="1.3"/><circle cx="797.7" cy="290.2" r="4" class="st8"/><path d="M789.7,294.2c0,0,4,8,16.1,4l-4-4H789.7z" class="st8"/><rect width="221" height="9.6" x="427" y="178.3" class="st1"/><rect width="221" height="9.6" x="427" y="197.5" class="st1"/><rect width="124.9" height="9.6" x="427" y="216.7" class="st1"/><rect width="182.5" height="9.6" x="427" y="235.9" class="st1"/><rect width="153.7" height="9.6" x="427" y="255.1" class="st1"/><rect width="221" height="9.6" x="427" y="274.4" class="st1"/><rect width="192.2" height="76.9" x="427" y="301.2" class="st1"/><polyline points="138.8 610.6 33.1 610.6 33.1 34.2 657.6 34.2 657.6 82.2" class="st16"/><g class="st17"><circle cx="36.3" cy="36.3" r="36.3" class="st18"/></g><circle cx="36.3" cy="36.3" r="34.2" class="st4"/><polygon points="22.3 33 33.5 43.3 49.3 20 54.9 24.7 33.5 52.6 17.7 34.9" class="st1"/><path d="M181.5,332.4l242.8-0.3c9.5,0,17.2,7.7,17.2,17.1l0.6,395.3c0,9.5-7.7,17.2-17.1,17.2L182.1,762	c-9.5,0-17.2-7.7-17.2-17.1l-0.6-395.3C164.3,340.1,172,332.4,181.5,332.4z" class="st0"/><linearGradient id="SVGID_4_" x1="444.963" x2="444.963" y1="-27.038" y2="327.873" gradientTransform="matrix(1 -1.396263e-03 -1.424188e-03 -1.02 -141.0727 702.0701)" gradientUnits="userSpaceOnUse"><stop offset="0" stop-color="#000" stop-opacity=".09"/><stop offset=".55" stop-color="#000" stop-opacity=".07"/><stop offset="1" stop-color="#000" stop-opacity=".02"/></linearGradient><polygon points="183.7 365.2 423.1 364.9 423.6 725.2 184.2 725.5" class="st19"/><path d="M185.4,338.9l234.9-0.3c7,0,12.7,5.7,12.7,12.7l0.5,384.5c0,7-5.7,12.7-12.7,12.7L186,748.7	c-7,0-12.7-5.7-12.7-12.7l-0.5-384.5C172.7,344.5,178.4,338.9,185.4,338.9z" class="st1"/><rect width="224.8" height="343.8" x="191.2" y="370" class="st2" transform="matrix(1 -1.396262e-03 1.396262e-03 1 -0.7563 0.4245)"/><ellipse cx="303.4" cy="731.5" class="st2" rx="9.3" ry="9.5"/><ellipse cx="264.5" cy="355.2" class="st2" rx="3.1" ry="3.2" transform="matrix(1 -1.396262e-03 1.396262e-03 1 -0.4957 0.3696)"/><path d="M280.7,353.3l38.6-0.1c0.4,0,0.8,0.3,0.8,0.8l0,1.6c0,0.4-0.3,0.8-0.8,0.8l-38.6,0.1c-0.4,0-0.8-0.3-0.8-0.8	l0-1.6C279.9,353.6,280.3,353.3,280.7,353.3z" class="st2"/><rect width="87.9" height="92.3" x="302.3" y="581.8" class="st3"/><rect width="80.3" height="84.3" x="306.1" y="585.8" class="st4"/><g class="st5"><linearGradient id="SVGID_5_" x1="462.6" x2="513.45" y1="62.493" y2="62.493" gradientTransform="matrix(1 0 0 -1 -141.76 695)" gradientUnits="userSpaceOnUse"><stop offset="0" stop-color="gray" stop-opacity=".25"/><stop offset=".54" stop-color="gray" stop-opacity=".12"/><stop offset="1" stop-color="gray" stop-opacity=".1"/></linearGradient><path d="M353.1,623.3l-1-0.4l-0.1,0.1H352v-2.7c0-0.3,0-0.7-0.1-1c1.6-1.2,2.9-2.8,3.6-4.7c4.1-5.4,3.1-13.1-2.2-17.2 c-5.4-4.1-13.1-3.1-17.2,2.2c-3.4,4.4-3.4,10.6,0,15c0.7,1.9,1.9,3.5,3.6,4.7c-0.1,0.3-0.1,0.7-0.1,1v3l0,0 c-11,3-18.7,13.1-18.7,24.5v22.3h50.8v-22.4C371.7,636.4,364.1,626.4,353.1,623.3z" class="st20"/></g><path d="M344.7,622.8h3.1c12.7,0,22.9,10.3,22.9,22.9v23l0,0h-49l0,0v-23C321.7,633,332,622.8,344.7,622.8	C344.7,622.8,344.7,622.8,344.7,622.8z" class="st21"/><path d="M345.4,614.8h0.8c3.1,0,5.6,2.5,5.6,5.6v3.8c0,3.1-2.5,5.6-5.6,5.6h-0.8c-3.1,0-5.6-2.5-5.6-5.6v-3.8	C339.8,617.3,342.3,614.8,345.4,614.8z" class="st22"/><polygon points="343.5 629.3 345.7 632.6 348 629.3" class="st22"/><path d="M331,641.1c0,0-2.4,23.7-0.8,25.2" class="st10"/><path d="M360.4,641.1c0,0,2.4,23.7,0.8,25.2" class="st10"/><path d="M345.8,622c2.1,0,4.2-0.7,5.9-1.9c-0.5-2.9-3-5-5.9-5l0,0c-2.9,0-5.5,2.1-5.9,5	C341.5,621.3,343.6,622,345.8,622z" class="st11"/><circle cx="345.8" cy="608.1" r="11.8" class="st23"/><circle cx="345.8" cy="611.8" r="10" class="st22"/><path d="M337.7,601.9l2.5,3.1c0,0,11.1,1,12.3-1.5c1.3-2.5-7.3-4.3-7.3-4.3L337.7,601.9z" class="st11"/><path d="M337.7,601.6l2.5,3.1c0,0,11.1,1,12.3-1.5c1.3-2.5-7.3-4.3-7.3-4.3L337.7,601.6z" class="st23"/><ellipse cx="335.7" cy="611.1" class="st22" rx=".7" ry="1.3"/><ellipse cx="355.8" cy="611.1" class="st22" rx=".7" ry="1.3"/><path d="M337.9,597.1c0.8-1,1.9-1.7,3.1-2.1c2.2-0.9,4.5-1.8,6.9-1.6c0.2,0,0.5,0.1,0.6,0.2c0.2,0.2,0.3,0.4,0.4,0.6	c0.7,1.1,2.7,1,3,2.3c0.1,0.4-0.1,0.8,0,1.3c0.3,1,1.7,0.9,2.5,1.5c0.9,0.8,1,2.2,0.2,3.2c-0.8,0.9-1.9,1.5-3.1,1.7	c-2.1,0.8-4.3,1-6.5,0.6C342.1,603.8,335,601.9,337.9,597.1z" class="st23"/><rect width="87.9" height="92.3" x="212.3" y="580.8" class="st3"/><rect width="80.3" height="84.3" x="216.1" y="584.8" class="st4"/><g class="st5"><linearGradient id="SVGID_6_" x1="372.6" x2="423.45" y1="63.493" y2="63.493" gradientTransform="matrix(1 0 0 -1 -141.76 695)" gradientUnits="userSpaceOnUse"><stop offset="0" stop-color="gray" stop-opacity=".25"/><stop offset=".54" stop-color="gray" stop-opacity=".12"/><stop offset="1" stop-color="gray" stop-opacity=".1"/></linearGradient><path d="M263.1,622.3l-1-0.4l-0.1,0.1H262v-2.7c0-0.3,0-0.7-0.1-1c1.6-1.2,2.9-2.8,3.6-4.7c4.1-5.4,3.1-13.1-2.2-17.2 c-5.4-4.1-13.1-3.1-17.2,2.2c-3.4,4.4-3.4,10.6,0,15c0.7,1.9,1.9,3.5,3.6,4.7c-0.1,0.3-0.1,0.7-0.1,1v3l0,0 c-11,3-18.7,13.1-18.7,24.5v22.3h50.9v-22.4C281.7,635.4,274.1,625.4,263.1,622.3z" class="st24"/></g><path d="M254.7,621.8h3.1c12.7,0,22.9,10.3,22.9,22.9v23l0,0h-49l0,0v-23C231.7,632,242,621.8,254.7,621.8	C254.7,621.8,254.7,621.8,254.7,621.8z" class="st13"/><path d="M255.4,613.8h0.8c3.1,0,5.6,2.5,5.6,5.6v3.8c0,3.1-2.5,5.6-5.6,5.6h-0.8c-3.1,0-5.6-2.5-5.6-5.6v-3.8	C249.8,616.3,252.3,613.8,255.4,613.8z" class="st9"/><path d="M241,640.1c0,0-2.4,23.7-0.8,25.2" class="st10"/><path d="M270.4,640.1c0,0,2.4,23.7,0.8,25.2" class="st10"/><path d="M255.8,621c2.1,0,4.2-0.7,5.9-1.9c-0.5-2.9-3-5-5.9-5l0,0c-2.9,0-5.5,2.1-5.9,5	C251.5,620.3,253.6,621,255.8,621z" class="st11"/><circle cx="255.8" cy="607.1" r="11.8" class="st23"/><circle cx="255.8" cy="610.8" r="10" class="st9"/><path d="M247.7,600.9l2.5,3.1c0,0,11.1,1,12.3-1.5c1.3-2.5-7.3-4.3-7.3-4.3L247.7,600.9z" class="st11"/><path d="M247.7,600.6l2.5,3.1c0,0,11.1,1,12.3-1.5c1.3-2.5-7.3-4.3-7.3-4.3L247.7,600.6z" class="st23"/><ellipse cx="245.7" cy="610.1" class="st9" rx=".7" ry="1.3"/><ellipse cx="265.8" cy="610.1" class="st9" rx=".7" ry="1.3"/><rect width="163.3" height="7.1" x="215.6" y="413.8" class="st1"/><rect width="163.3" height="7.1" x="215.6" y="428" class="st1"/><rect width="92.3" height="7.1" x="215.6" y="442.2" class="st1"/><rect width="134.9" height="7.1" x="215.6" y="456.4" class="st1"/><rect width="113.6" height="7.1" x="215.6" y="470.6" class="st1"/><rect width="163.3" height="7.1" x="215.6" y="484.8" class="st1"/><rect width="142" height="56.8" x="216.1" y="506.1" class="st1"/><path d="M248.8,607c0.5-0.9,0.9-1.8,1.3-2.8c1.6-3.4,5.7-4.9,9.1-3.4c1.3,0.6,2.4,1.6,3.1,2.9c0.8,1.5,1.1,3.2,2,4.6	c0.5,0.4,1.3,0.3,1.6-0.2c0,0,0,0,0.1-0.1c0.3-0.6,0.4-1.3,0.1-1.9c-0.2-0.6-0.6-1.2-0.8-1.8c-0.2-1-0.6-2-1-2.9	c-0.5-0.7-1.2-1.3-2-1.7c-2.2-1.4-4.8-2.8-7.3-2c-0.8,0.3-1.6,0.7-2.4,1.2l-3.2,2c-1,0.6-1.9,1.3-2.7,2.2c-0.7,0.9-2,3.6-1.4,4.8	C246.1,609.3,248.2,607.8,248.8,607z" class="st23"/><polygon points="253.2 628 253.2 667.7 259.1 667.7 258.2 628" class="st1"/><polygon points="252.3 627.5 255.7 632.4 259.2 627.5" class="st9"/></svg>