<svg xmlns="http://www.w3.org/2000/svg" xmlns:xlink="http://www.w3.org/1999/xlink" id="Layer_1" x="0" y="0" enable-background="new 0 0 150 150" version="1.1" viewBox="0 0 150 150" xml:space="preserve"><style type="text/css">.st0{fill:none;stroke:#151b26;stroke-width:2;stroke-linecap:round;stroke-linejoin:round;stroke-miterlimit:10}</style><g><g><g><path d="M19,78.4h15.4c1.3,0,2.4-1.1,2.4-2.4l0,0c0-1.3-1.1-2.4-2.4-2.4h-9.8" class="st0"/><line x1="14.1" x2="62.3" y1="83.7" y2="83.7" class="st0"/><polygon points="61.5 83.7 84.9 103.7 96.5 103.7 83.2 83.7" class="st0"/><polyline points="67.8 68.3 79.8 57.8 90.9 57.8 83.8 68.3" class="st0"/><path d="M86,88c0,0,20,0.2,30.1-5.5c6-3.5,7.4-7.5,7.4-7.5" class="st0"/><polygon points="113.6 68.4 127.9 68.4 136.1 46.3 128.7 46.3" class="st0"/><polyline points="113.6 68.4 128.5 78.4 136.1 78.3 127.9 68.4" class="st0"/><path d="M119.9,72.6c0,0-2.1,6.3-11.4,8.8s-25.3,2.3-25.3,2.3" class="st0"/><path d="M94.1,75.9c0,1.4-1.1,2.5-2.5,2.5s-2.5-1.1-2.5-2.5s1.1-2.5,2.5-2.5C93,73.3,94.1,74.5,94.1,75.9z" class="st0"/><path d="M84,75.9c0,1.4-1.1,2.5-2.5,2.5S79,77.3,79,75.9s1.1-2.5,2.5-2.5C82.9,73.3,84,74.5,84,75.9z" class="st0"/><circle cx="71.4" cy="75.9" r="2.5" class="st0"/><path d="M63.8,75.9c0,1.4-1.1,2.5-2.5,2.5s-2.5-1.1-2.5-2.5s1.1-2.5,2.5-2.5C62.7,73.3,63.8,74.5,63.8,75.9z" class="st0"/><path d="M53.7,75.9c0,1.4-1.1,2.5-2.5,2.5s-2.5-1.1-2.5-2.5s1.1-2.5,2.5-2.5C52.6,73.3,53.7,74.5,53.7,75.9z" class="st0"/><path d="M66.6,88.2H17.1c-2.4,0-4-3.2-2.7-5.2c0.9-1.4,2.3-2.9,4.6-4.5c6.7-4.6,5.1-5.7,8.3-6.9 c3.2-1.2,10.6-3.2,51.2-3.2c40.7,0,34.7,0,34.7,0" class="st0"/></g></g><path d="M33.8,88.2c5.6,17.6,22.2,30.3,41.7,30.1c21.5-0.2,39.2-16.2,42.3-36.8" class="st0"/><path d="M116.6,63c-5.2-18.3-22.2-31.5-42.1-31.3C52.5,32,34.4,48.7,32,70" class="st0"/><path d="M40.1,49.5c9.9,2.5,22.2,4,35.6,3.9c12.8-0.1,24.5-1.6,34.1-4" class="st0"/><path d="M76.6,96.6c-0.8,0-1.5,0-2.3,0c-12.8,0.1-24.5,1.6-34.1,4" class="st0"/><path d="M109.9,100.5c-5.2-1.3-11.2-2.4-17.5-3" class="st0"/><path d="M96.8,98c1.2-3.3,2.2-6.8,2.9-10.6" class="st0"/><path d="M100.4,68.2c-2-20.8-12.8-36.7-25.7-36.4C61.9,32,51.4,47.9,49.6,68.5" class="st0"/><line x1="75" x2="75" y1="96.6" y2="117.4" class="st0"/><line x1="75" x2="75" y1="32.6" y2="61.6" class="st0"/><path d="M50.6,88.6c3.4,17.4,13.2,29.9,24.7,29.7c7.5-0.1,14.2-5.6,18.8-14.3" class="st0"/></g></svg>