<svg xmlns="http://www.w3.org/2000/svg" xmlns:xlink="http://www.w3.org/1999/xlink" id="Layer_1" x="0" y="0" enable-background="new 0 0 150 150" version="1.1" viewBox="0 0 150 150" xml:space="preserve"><style type="text/css">.st0{fill:none;stroke:#151b26;stroke-width:2;stroke-linecap:round;stroke-linejoin:round;stroke-miterlimit:10}</style><g><g><g><line x1="21.7" x2="16.3" y1="115.8" y2="121.2" class="st0"/></g><line x1="24.4" x2="22" y1="126.2" y2="128.5" class="st0"/><g><path d="M96.7,40.1c2-0.5,4.1-0.4,6.1,0.2" class="st0"/><path d="M91.3,59.3c-4.5-4.5-4.5-11.7,0-16.2" class="st0"/><circle cx="99.4" cy="51.2" r="17.1" class="st0"/></g><g><path d="M57.5,57.2c-9.8-1.6-20.2,1.4-27.8,9c-3,3-5.2,6.4-6.8,10c7-1.3,15.1-1.5,23.8-0.4 C49.5,69.4,53.1,63.1,57.5,57.2z" class="st0"/><path d="M75.4,121.4c-0.1,0.5-0.6,4-0.7,4.4c-0.1,0.6-0.2,1.3-0.3,1.9c3.6-1.6,7.1-3.8,10-6.8 c7.6-7.6,10.6-17.9,9-27.8c-6,4.4-12.2,8-18.6,10.7c0.6,4.7,0.8,9.2,0.7,13.5" class="st0"/></g><g><path d="M67.1,88.8c4.8,4.4,9.9,8,15.4,11.1" class="st0"/><path d="M50.7,68c3,5.4,6.7,10.6,11.1,15.4" class="st0"/></g><path d="M49,101.6L49,101.6c-1.5-1.5-1.5-3.9,0-5.4l20-20c1.5-1.5,3.9-1.5,5.4,0l0,0c1.5,1.5,1.5,3.9,0,5.4l-20,20 C52.9,103.1,50.5,103.1,49,101.6z" class="st0"/><g><path d="M61.7,94.2c4.1,3.7,8.4,6.9,12.9,9.7c10.9-4.7,21.5-11.8,30.9-21.2c19.3-19.3,29-43.9,28.1-65.8 C111.7,16,87.2,25.7,67.8,45c-9.4,9.4-16.4,20-21.2,30.9c2.8,4.5,6,8.9,9.7,12.9" class="st0"/><path d="M109.8,19.9c2.6,4.3,5.6,8.2,9.2,11.7c3.6,3.6,7.5,6.6,11.7,9.1" class="st0"/></g><path d="M70.8,108.9c-3.4-2.1-6.8-4.6-10.1-7.4l-3.3,3.3c-3.1,3.1-8.2,3.1-11.3,0l0,0c-3.1-3.1-3.1-8.2,0-11.3 l3.3-3.3c-2.9-3.4-5.5-7-7.8-10.6c-2.9,1.6-5.8,3.7-8.4,6.4c-7.5,7.5-11,17-9.6,24.1c1.5,0.3,3.1,0.4,4.8,0.3 c-1.4,4.5-1.7,8.8-0.9,12.6c3.8,0.8,8.2,0.4,12.6-0.9c-0.1,1.7-0.1,3.3,0.3,4.8c7.1,1.5,16.6-2,24.1-9.6 C67.1,114.8,69.2,111.9,70.8,108.9z" class="st0"/><g><line x1="34.4" x2="25.1" y1="70" y2="79.3" class="st0"/><line x1="31.3" x2="24.4" y1="80.8" y2="87.7" class="st0"/><line x1="20.5" x2="19" y1="83.9" y2="85.4" class="st0"/><line x1="80.5" x2="65.7" y1="116.2" y2="131.1" class="st0"/><line x1="69.8" x2="62.8" y1="119.3" y2="126.2" class="st0"/><line x1="58.2" x2="55.9" y1="130.8" y2="133.2" class="st0"/></g></g></g></svg>