<svg xmlns="http://www.w3.org/2000/svg" xmlns:xlink="http://www.w3.org/1999/xlink" id="Layer_1" x="0" y="0" enable-background="new 0 0 150 150" version="1.1" viewBox="0 0 150 150" xml:space="preserve"><style type="text/css">.st0,.st1{fill:none;stroke:#151b26;stroke-linecap:round;stroke-linejoin:round}.st1{stroke-dasharray:9.1912,9.1912}.st2{stroke-miterlimit:10;stroke:#151b26;stroke-linecap:round;stroke-linejoin:round}.st2,.st3,.st4{fill:none}.st3,.st4,.st5{stroke:#151b26;stroke-linecap:round;stroke-linejoin:round}.st3{stroke-dasharray:9.7064,9.7064}.st4,.st5{stroke-width:2;stroke-miterlimit:10}.st5{fill:#fff}</style><g><g><g><g><path d="M78.5,58c0.5,0.1,1,0.2,1.5,0.4" class="st0"/><path d="M82.7,59.5c1.3,0.7,2.5,1.5,3.5,2.5" class="st1"/><path d="M87.2,63.1c0.3,0.4,0.7,0.8,1,1.2" class="st0"/></g></g><path d="M88.2,64.3c1.8,2.5,2.9,5.7,2.9,9c0,5.7-3,10.7-7.6,13.4" class="st2"/><path d="M67.3,86.7c-4.5-2.7-7.6-7.7-7.6-13.4c0-8.6,7-15.6,15.6-15.6c1.1,0,2.1,0.1,3.1,0.3" class="st2"/><path d="M75.4,88.1" class="st2"/><ellipse cx="75.4" cy="73.3" class="st2" rx="18" ry="18"/><path d="M78.4,72.6" class="st2"/><path d="M78.4,72.6" class="st2"/><g><g><path d="M69.2,87.7c0,0,0.5,0.3,1.5,0.5" class="st0"/><path d="M73.6,88.9c1.3,0.2,2.9,0.2,4.5-0.2" class="st3"/><path d="M79.6,88.3c0.5-0.2,1-0.4,1.5-0.6" class="st0"/></g></g><path d="M79.4,68.9c0,3-1.9,5.4-4.2,5.4c-2.3,0-4.2-2.7-4.2-5.4" class="st2"/><path d="M79.9,66.8c0.6,0,0.9,0.6,0.9,1.4s-0.5,1.4-1.1,1.4" class="st2"/><path d="M70.9,69.6c-0.6,0-1.1-0.6-1.1-1.4s0.2-1.4,0.9-1.4" class="st2"/><line x1="72.4" x2="72.4" y1="75" y2="72.9" class="st2"/><line x1="78.4" x2="78.4" y1="72.6" y2="75" class="st2"/><path d="M72.4,75c0,0-3.3,1.5-5.7,2.1c-2.4,0.6-3,4.6-3.1,6.4" class="st2"/><path d="M78.4,75c0,0,3.6,1.5,6,2.1c2.4,0.6,2.8,4.6,2.9,6.4" class="st2"/><path d="M71,65.9c0,0-1-3.7-0.2-4.5c0.8-0.8,1.7-0.7,1.7-0.7s0.1-0.9,1.8-0.9c1.4,0,3.4,0,4.9,1.6 c0.4,0.4,0.6,1,0.5,1.5l-0.3,3c0,0-0.5-3.1-6.8-3.1L71,65.9z" class="st2"/><path d="M79,75.3c0,2-1.6,3.6-3.6,3.6s-3.6-1.6-3.6-3.6" class="st2"/><line x1="79.4" x2="79.4" y1="65.9" y2="68.1" class="st2"/><line x1="71" x2="71" y1="65.9" y2="68.1" class="st2"/></g><g><g><path d="M28.1,97.2V46.4c0-2.4,1.9-4.3,4.3-4.3h85.9c2.4,0,4.3,1.9,4.3,4.3v50.8" class="st4"/><polyline points="34.6 97.5 34.6 49.2 116.2 49.2 116.2 76.5" class="st4"/><path d="M118.9,105.7h4.4c5.4,0,11.1-8.1,11.1-8.1h-15.4" class="st4"/><path d="M75.8,99.9H62v-2.4H15.1c0,0,6.6,8.1,12.4,8.1h48.9" class="st4"/></g></g><g><path d="M114.7,113H80.5c-2.3,0-4.2-1.9-4.2-4.2v-28c0-2.3,1.9-4.2,4.2-4.2h34.2c2.3,0,4.2,1.9,4.2,4.2v28 C118.9,111.1,117,113,114.7,113z" class="st5"/><path d="M109.2,91.5c0.3,1.1,0.5,2.2,0.5,3.3c0,6.7-5.4,12-12,12c-6.7,0-12-5.4-12-12c0-6.7,5.4-12,12-12 c3,0,5.8,1.1,7.9,3" class="st4"/><polyline points="92.8 93.4 97.6 98.4 111.4 84.6" class="st4"/><path d="M84.7,76.6V70c0-7.1,5.8-12.9,12.9-12.9l0,0c7.1,0,12.9,5.8,12.9,12.9v6.7" class="st5"/><path d="M90.1,76.6v-6.3c0-4.2,3.4-7.5,7.5-7.5l0,0c4.2,0,7.5,3.4,7.5,7.5v6.3" class="st4"/></g></g></svg>