<svg xmlns="http://www.w3.org/2000/svg" xmlns:xlink="http://www.w3.org/1999/xlink" id="macbook_1_" x="0" y="0" enable-background="new 0 0 999.1 577.5" version="1.1" viewBox="0 0 999.1 577.5" xml:space="preserve"><style type="text/css">.st0{fill:#fff;stroke:#e7eaf3;stroke-miterlimit:10}.st1{fill:#f7f7f7}.st2{fill:#fff}.st3{fill:#efefef}.st4{display:none;fill:url(#SVGID_1_)}.st5{fill-rule:evenodd;clip-rule:evenodd;fill:#f7f7f7}</style><path d="M881.3,577H117.5c-14.4,0-26.2-11.8-26.2-26.2V26.7c0-14.4,11.8-26.2,26.2-26.2h763.9	c14.4,0,26.2,11.8,26.2,26.2v524.2C907.5,565.2,895.7,577,881.3,577z" class="st0"/><circle cx="498" cy="23.8" r="3" class="st1"/><path d="M996.3,561.2H2.9c-1.5,0-2.8-1.3-2.8-2.8l0,0c0-1.5,1.3-2.8,2.8-2.8h993.4c1.5,0,2.8,1.3,2.8,2.8l0,0	C999.1,559.9,997.9,561.2,996.3,561.2z" class="st2"/><path d="M499.6,563L0,561.2c0,0,24.1,11.3,117.8,15.8H498h3.1h380.2c93.7-4.5,117.8-15.8,117.8-15.8L499.6,563z" class="st3"/><linearGradient id="SVGID_1_" x1="403.821" x2="594.97" y1="559.147" y2="559.147" gradientUnits="userSpaceOnUse"><stop offset="0" stop-color="#F0F1F2"/><stop offset=".052" stop-color="#F6F7F8"/><stop offset=".171" stop-color="#FDFDFD"/><stop offset=".5" stop-color="#FFF"/><stop offset=".829" stop-color="#FDFDFD"/><stop offset=".948" stop-color="#F6F7F8"/><stop offset="1" stop-color="#F0F1F2"/></linearGradient><path d="M591.4,562.7H407.4c-1.9,0-3.5-1.6-3.5-3.5v-3.5H595v3.5C595,561.1,593.4,562.7,591.4,562.7z" class="st4"/><g><defs><rect id="SVGID_2_" width="752.5" height="469.7" x="121.7" y="38"/></defs><clipPath id="SVGID_3_"><use overflow="visible" xlink:href="#SVGID_2_"/></clipPath><g clip-path="url(#SVGID_3_)"><image width="753" height="470" overflow="visible" transform="matrix(1 0 0 1 121.5 37.8352)" xlink:href="../../img/753x470/img1.jpg"/></g><use fill="none" stroke="#E7EAF3" stroke-miterlimit="10" overflow="visible" xlink:href="#SVGID_2_"/></g><path d="M944,577H823.1c-29.7,0-54-24.3-54-54V150.9c0-29.7,24.3-54,54-54H944c29.7,0,54,24.3,54,54V523	C998,552.7,973.7,577,944,577z" class="st0"/><circle cx="884.3" cy="543.4" r="18.4" class="st1"/><path d="M899.1,133.7h-30.3c-1.6,0-2.9-1.3-2.9-2.9l0,0c0-1.6,1.3-2.9,2.9-2.9h30.3c1.6,0,2.9,1.3,2.9,2.9l0,0	C902,132.4,900.7,133.7,899.1,133.7z" class="st5"/><g><defs><rect id="SVGID_4_" width="202.2" height="361" x="783.1" y="154.8"/></defs><clipPath id="SVGID_5_"><use overflow="visible" xlink:href="#SVGID_4_"/></clipPath><g clip-path="url(#SVGID_5_)"><image width="204" height="361" overflow="visible" transform="matrix(1 0 0 1 781.5639 154.8124)" xlink:href="../../img/204x361/img1.jpg"/></g><use fill="none" stroke="#E7EAF3" stroke-miterlimit="10" overflow="visible" xlink:href="#SVGID_4_"/></g></svg>