<svg xmlns="http://www.w3.org/2000/svg" xmlns:xlink="http://www.w3.org/1999/xlink" id="macbook_1_" x="0" y="0" enable-background="new 0 0 1270.5 701.1" version="1.1" viewBox="0 0 1270.5 701.1" xml:space="preserve"><style type="text/css">.st0{opacity:.3;fill:#e7eaf3}.st1{fill:#fff;stroke:#e7eaf3;stroke-miterlimit:10}.st2{fill:#f7f7f7}.st3{fill:#fff}.st4{fill:#efefef}.st5{fill:url(#SVGID_1_)}.st6{clip-path:url(#SVGID_4_)}.st7,.st8,.st9{fill:none;stroke:#e7eaf3;stroke-miterlimit:10}.st8,.st9{stroke:#c4c7ce}.st9{stroke-dasharray:4,0,3,0,0,2}</style><ellipse cx="693" cy="652.6" class="st0" rx="577.5" ry="48.5"/><g id="laptop"><path d="M1073.8,660H310c-14.4,0-26.2-11.8-26.2-26.2V109.7c0-14.4,11.8-26.2,26.2-26.2h763.9 c14.4,0,26.2,11.8,26.2,26.2v524.2C1100,648.2,1088.2,660,1073.8,660z" class="st1"/><circle cx="690.5" cy="106.8" r="3" class="st2"/><path d="M1188.8,644.2H195.4c-1.5,0-2.8-1.3-2.8-2.8l0,0c0-1.5,1.3-2.8,2.8-2.8h993.4c1.5,0,2.8,1.3,2.8,2.8l0,0 C1191.6,642.9,1190.4,644.2,1188.8,644.2z" class="st3"/><path d="M692.1,646l-499.6-1.8c0,0,24.1,11.3,117.8,15.8h380.2h3.1h380.2c93.7-4.5,117.8-15.8,117.8-15.8L692.1,646z" class="st4"/><linearGradient id="SVGID_1_" x1="596.4" x2="787.5" y1="103.8" y2="103.8" gradientTransform="matrix(1 0 0 -1 0 746)" gradientUnits="userSpaceOnUse"><stop offset="0" stop-color="#F0F1F2"/><stop offset=".052" stop-color="#F6F7F8"/><stop offset=".171" stop-color="#FDFDFD"/><stop offset=".5" stop-color="#FFF"/><stop offset=".829" stop-color="#FDFDFD"/><stop offset=".948" stop-color="#F6F7F8"/><stop offset="1" stop-color="#F0F1F2"/></linearGradient><path d="M783.9,645.7h-184c-1.9,0-3.5-1.6-3.5-3.5v-3.5h191.1v3.5C787.5,644.1,785.9,645.7,783.9,645.7z" class="st5"/><g><g><defs><rect id="SVGID_3_" width="752.5" height="469.7" x="314.2" y="121"/></defs><clipPath id="SVGID_4_"><use overflow="visible" xlink:href="#SVGID_3_"/></clipPath><g class="st6"><image width="753" height="470" enable-background="new" overflow="visible" transform="matrix(1 0 0 1 314 120.8352)" xlink:href="../../img/753x470/img1.jpg"/></g></g><g><rect id="SVGID_2_" width="752.5" height="469.7" x="314.2" y="121" class="st7"/></g></g></g><g><defs><circle id="loupe" cx="103.5" cy="103.5" r="100"/></defs><clipPath id="loupe_1_"><use overflow="visible" xlink:href="#loupe"/></clipPath><g clip-path="url(#loupe_1_)"><image width="200" height="200" overflow="visible" transform="matrix(1 0 0 1 2.5 3.5)" xlink:href="../../img/200x200/img1.jpg"/></g><use fill="none" stroke="#E7EAF3" stroke-miterlimit="10" stroke-width="7" overflow="visible" xlink:href="#loupe"/></g><g id="indicator"><ellipse cx="380.1" cy="273.1" class="st8" rx="4.8" ry="4.8" transform="matrix(0.9832 -0.1823 0.1823 0.9832 -43.4284 73.8743)"/><path d="M370.2,275.5c0,0-109.7,22.9-184.9-68" class="st9"/><ellipse cx="178.2" cy="200.3" class="st8" rx="4.8" ry="4.8" transform="matrix(0.9832 -0.1823 0.1823 0.9832 -33.5224 35.848)"/></g></svg>