<svg xmlns="http://www.w3.org/2000/svg" xmlns:xlink="http://www.w3.org/1999/xlink" id="macbook_1_" x="0" y="0" enable-background="new 0 0 999.1 577.5" version="1.1" viewBox="0 0 999.1 577.5" xml:space="preserve"><style type="text/css">.st0{fill:#fff;stroke:#e7eaf3;stroke-miterlimit:10}.st1{fill:#f7f7f7}.st2{fill:#fff}.st3{fill:#efefef}.st4{fill:url(#SVGID_1_)}.st5{clip-path:url(#SVGID_4_)}.st6{fill:none;stroke:#e7eaf3;stroke-miterlimit:10}</style><g id="laptop"><path d="M881.3,577H117.5c-14.4,0-26.2-11.8-26.2-26.2V26.7c0-14.4,11.8-26.2,26.2-26.2h763.9 c14.4,0,26.2,11.8,26.2,26.2v524.2C907.5,565.2,895.7,577,881.3,577z" class="st0"/><circle cx="498" cy="23.8" r="3" class="st1"/><path d="M996.3,561.2H2.9c-1.5,0-2.8-1.3-2.8-2.8l0,0c0-1.5,1.3-2.8,2.8-2.8h993.4c1.5,0,2.8,1.3,2.8,2.8l0,0 C999.1,559.9,997.9,561.2,996.3,561.2z" class="st2"/><path d="M499.6,563L0,561.2c0,0,24.1,11.3,117.8,15.8H498h3.1h380.2c93.7-4.5,117.8-15.8,117.8-15.8L499.6,563z" class="st3"/><linearGradient id="SVGID_1_" x1="403.9" x2="595" y1="129.2" y2="129.2" gradientTransform="matrix(1 0 0 1 0 430)" gradientUnits="userSpaceOnUse"><stop offset="0" stop-color="#F0F1F2"/><stop offset=".052" stop-color="#F6F7F8"/><stop offset=".171" stop-color="#FDFDFD"/><stop offset=".5" stop-color="#FFF"/><stop offset=".829" stop-color="#FDFDFD"/><stop offset=".948" stop-color="#F6F7F8"/><stop offset="1" stop-color="#F0F1F2"/></linearGradient><path d="M591.4,562.7h-184c-1.9,0-3.5-1.6-3.5-3.5v-3.5H595v3.5C595,561.1,593.4,562.7,591.4,562.7z" class="st4"/><g><g><g><defs><rect id="SVGID_3_" width="752.5" height="469.7" x="121.7" y="38"/></defs><clipPath id="SVGID_4_"><use overflow="visible" xlink:href="#SVGID_3_"/></clipPath><g class="st5"><image width="753" height="470" enable-background="new" overflow="visible" transform="matrix(1 0 0 1 121.5 37.8352)" xlink:href="../../img/753x470/img5.jpg"/></g></g></g><g><rect id="SVGID_2_" width="752.5" height="469.7" x="121.7" y="38" class="st6"/></g></g></g></svg>