<svg xmlns="http://www.w3.org/2000/svg" xmlns:xlink="http://www.w3.org/1999/xlink" id="phones" x="0" y="0" enable-background="new 0 0 339.9 405" version="1.1" viewBox="0 0 339.9 405" xml:space="preserve"><style type="text/css">.st0{fill:#fff;stroke:#e7eaf3;stroke-miterlimit:10}.st1{fill:#f7f7f7}.st2{fill:none;stroke:#e7eaf3;stroke-miterlimit:10}</style><g id="phone_x5F_1"><path d="M285.4,481H164.5c-29.7,0-54-24.3-54-54V55c0-29.7,24.3-54,54-54h120.9c29.7,0,54,24.3,54,54V427 C339.4,456.8,315.1,481,285.4,481z" class="st0"/><circle cx="225.7" cy="447.5" r="18.4" class="st1"/><path d="M240.5,37.8h-30.3c-1.6,0-2.9-1.3-2.9-2.9l0,0c0-1.6,1.3-2.9,2.9-2.9h30.3c1.6,0,2.9,1.3,2.9,2.9l0,0 C243.4,36.5,242.1,37.8,240.5,37.8z" class="st1"/><g><g><defs><rect id="SVGID_2_" width="202.2" height="361" x="124.5" y="58.9"/></defs><clipPath id="SVGID_3_"><use overflow="visible" xlink:href="#SVGID_2_"/></clipPath><g clip-path="url(#SVGID_3_)"><image width="204" height="361" overflow="visible" transform="matrix(1 0 0 1 123.7 58.85)" xlink:href="../../img/204x361/img2.jpg"/></g></g><g><rect id="SVGID_4_" width="202.2" height="361" x="124.5" y="58.9" class="st2"/></g></g></g><g id="phone_x5F_2"><path d="M175.4,539H54.5c-29.7,0-54-24.3-54-54V112.9c0-29.7,24.3-54,54-54h120.9c29.7,0,54,24.3,54,54V485 C229.4,514.8,205.1,539,175.4,539z" class="st0"/><circle cx="115.7" cy="505.5" r="18.4" class="st1"/><path d="M130.5,95.8h-30.3c-1.6,0-2.9-1.3-2.9-2.9l0,0c0-1.6,1.3-2.9,2.9-2.9h30.3c1.6,0,2.9,1.3,2.9,2.9l0,0 C133.4,94.4,132.1,95.8,130.5,95.8z" class="st1"/><g><g><defs><rect id="SVGID_5_" width="202.2" height="361" x="14.5" y="116.9"/></defs><clipPath id="SVGID_6_"><use overflow="visible" xlink:href="#SVGID_5_"/></clipPath><g clip-path="url(#SVGID_6_)"><image width="204" height="361" overflow="visible" transform="matrix(1 0 0 1 12.95 126.5)" xlink:href="../../img/204x361/img1.jpg"/></g></g><g><rect id="SVGID_1_" width="202.2" height="361" x="14.5" y="116.9" class="st2"/></g></g></g></svg>