<svg xmlns="http://www.w3.org/2000/svg" xmlns:xlink="http://www.w3.org/1999/xlink" id="Layer_1" x="0" y="0" enable-background="new 0 0 234.9 486" version="1.1" viewBox="0 0 234.9 486" xml:space="preserve"><style type="text/css">.st0{opacity:.7;fill:#e3e6f0;enable-background:new}.st1{fill:#f5f8fb}.st2{fill:#e3e6f0}.st3{clip-path:url(#SVGID_2_)}.st4{fill:none;stroke:#e7eaf3;stroke-miterlimit:10}</style><g id="phone_x5F_1"><path d="M180.9,486H60c-29.7,0-54-24.3-54-54V60C6,30.3,30.3,6,60,6h120.9c29.7,0,54,24.3,54,54v372 C234.9,461.8,210.6,486,180.9,486z" class="st0"/><path d="M174.9,480H54c-29.7,0-54-24.3-54-54V54C0,24.3,24.3,0,54,0h120.9c29.7,0,54,24.3,54,54v372 C228.9,455.8,204.6,480,174.9,480z" class="st1"/><circle cx="115.2" cy="446.5" r="18.4" class="st2"/><path d="M130,36.8H99.7c-1.6,0-2.9-1.3-2.9-2.9l0,0c0-1.6,1.3-2.9,2.9-2.9H130c1.6,0,2.9,1.3,2.9,2.9l0,0 C132.9,35.5,131.6,36.8,130,36.8z" class="st2"/><g><g><g><g><g><defs><rect id="SVGID_1_" width="202.2" height="361" x="14" y="57.9"/></defs><clipPath id="SVGID_2_"><use overflow="visible" xlink:href="#SVGID_1_"/></clipPath><g class="st3"><image width="204" height="361" enable-background="new" overflow="visible" transform="matrix(1 0 0 1 13.201 57.8909)" xlink:href="../../img/204x361/img4.jpg"/></g></g></g></g></g><g><rect id="SVGID_4_" width="202.2" height="361" x="14" y="57.9" class="st4"/></g></g></g></svg>