<svg xmlns="http://www.w3.org/2000/svg" xmlns:xlink="http://www.w3.org/1999/xlink" id="Layer_1" x="0" y="0" enable-background="new 0 0 492.4 486.5" version="1.1" viewBox="0 0 492.4 486.5" xml:space="preserve"><style type="text/css">.st0{opacity:.7;fill:#e3e6f0;enable-background:new}.st1{fill:#fff;stroke:#e7eaf3;stroke-miterlimit:10}.st2{fill:#e3e6f0}.st3{clip-path:url(#SVGID_3_)}.st4{fill:none;stroke:#e7eaf3;stroke-miterlimit:10}.st5{clip-path:url(#SVGID_6_)}</style><g id="phone_x5F_1"><path d="M438.4,486.5H317.5c-29.7,0-54-24.3-54-54v-372c0-29.7,24.3-54,54-54h120.9c29.7,0,54,24.3,54,54v372 C492.4,462.3,468.1,486.5,438.4,486.5z" class="st0"/><path d="M432.4,480.5H311.5c-29.7,0-54-24.3-54-54v-372c0-29.7,24.3-54,54-54h120.9c29.7,0,54,24.3,54,54v372 C486.4,456.3,462.1,480.5,432.4,480.5z" class="st1"/><circle cx="372.7" cy="447" r="18.4" class="st2"/><path d="M387.5,37.3h-30.3c-1.6,0-2.9-1.3-2.9-2.9l0,0c0-1.6,1.3-2.9,2.9-2.9h30.3c1.6,0,2.9,1.3,2.9,2.9l0,0 C390.4,36,389.1,37.3,387.5,37.3z" class="st2"/><g><g><g><g><g><g><defs><rect id="SVGID_1_" width="202.2" height="361" x="271.5" y="58.4"/></defs><clipPath id="SVGID_3_"><use overflow="visible" xlink:href="#SVGID_1_"/></clipPath><g class="st3"><image width="204" height="361" enable-background="new" overflow="visible" transform="matrix(1 0 0 1 270.701 58.3909)" xlink:href="../../img/204x361/img8.jpg"/></g></g></g></g></g></g><g><rect id="SVGID_4_" width="202.2" height="361" x="271.5" y="58.4" class="st4"/></g></g></g><g id="phone_x5F_2"><path d="M181.4,486.5H60.5c-29.7,0-54-24.3-54-54v-372c0-29.7,24.3-54,54-54h120.9c29.7,0,54,24.3,54,54v372 C235.4,462.3,211.1,486.5,181.4,486.5z" class="st0"/><path d="M175.4,480.5H54.5c-29.7,0-54-24.3-54-54v-372c0-29.7,24.3-54,54-54h120.9c29.7,0,54,24.3,54,54v372 C229.4,456.3,205.1,480.5,175.4,480.5z" class="st1"/><circle cx="115.7" cy="447" r="18.4" class="st2"/><path d="M130.5,37.3h-30.3c-1.6,0-2.9-1.3-2.9-2.9l0,0c0-1.6,1.3-2.9,2.9-2.9h30.3c1.6,0,2.9,1.3,2.9,2.9l0,0 C133.4,36,132.1,37.3,130.5,37.3z" class="st2"/><g><g><g><g><g><g><defs><rect id="SVGID_5_" width="202.2" height="361" x="14.5" y="58.4"/></defs><clipPath id="SVGID_6_"><use overflow="visible" xlink:href="#SVGID_5_"/></clipPath><g class="st5"><image width="204" height="361" enable-background="new" overflow="visible" transform="matrix(1 0 0 1 13.701 58.3909)" xlink:href="../../img/204x361/img7.jpg"/></g></g></g></g></g></g><g><rect id="SVGID_2_" width="202.2" height="361" x="14.5" y="58.4" class="st4"/></g></g></g></svg>