<svg xmlns="http://www.w3.org/2000/svg" xmlns:xlink="http://www.w3.org/1999/xlink" id="Layer_1" x="0" y="0" enable-background="new 0 0 1032 617.2" version="1.1" viewBox="0 0 1032 617.2" xml:space="preserve"><style type="text/css">.st0{fill:none;stroke:#e3e6f0;stroke-width:3;stroke-miterlimit:10;stroke-dasharray:4.9856,4.9856}.st1{opacity:5.000000e-02;fill:url(#drop-shadow_1_)}.st2{fill:#e7eaf3}.st3{fill:#fff}</style><g id="XMLID_1_"><ellipse cx="516" cy="318.7" class="st0" rx="363" ry="205.4" transform="matrix(0.9927 -0.121 0.121 0.9927 -34.7675 64.7688)"/></g><g id="XMLID_2_"><ellipse cx="516" cy="318.7" class="st0" rx="517.1" ry="292.5" transform="matrix(0.9927 -0.121 0.121 0.9927 -34.7675 64.7688)"/></g><g id="ipad"><linearGradient id="drop-shadow_1_" x1="621.215" x2="411.698" y1="499.957" y2="137.064" gradientUnits="userSpaceOnUse"><stop offset="0" stop-color="#377DFF"/><stop offset=".346" stop-color="#80ADFF"/><stop offset=".796" stop-color="#DBE8FF"/><stop offset="1" stop-color="#FFF"/></linearGradient><path id="drop-shadow" d="M375.8,596.8L34.4,399.7c-21.4-12.4-21.4-32.4,0-44.8L579.5,40.2c21.4-12.4,56.2-12.4,77.6,0 l341.4,197.1c21.4,12.4,21.4,32.4,0,44.8L453.4,596.8C432,609.2,397.2,609.2,375.8,596.8z" class="st1"/><path id="body" d="M988.8,220.5l-24.3,2.9L645.3,39.1c-20.6-11.9-54-11.9-74.6,0L68.2,329.2l-36.8,4.3v29.4 c0,0.1,0,0.2,0,0.3v0.5l0,0c0.3,7.6,5.4,15.1,15.4,20.9L375,574c20.6,11.9,54,11.9,74.6,0l523.9-302.4 c10.3-5.9,15.4-13.7,15.4-21.5h0V220.5z" class="st2"/><path id="frame" d="M375,543.8L46.9,354.4c-20.6-11.9-20.6-31.2,0-43.1L570.7,8.9c20.6-11.9,54-11.9,74.6,0 l328.1,189.4c20.6,11.9,20.6,31.2,0,43.1L449.5,543.8C429,555.7,395.6,555.7,375,543.8z" class="st3"/><g><defs><path id="screen" d="M478.1,494.4L133.2,295.3c-5.1-3-5.1-7.8,0-10.8l431.3-249c5.1-3,13.5-3,18.6,0L928,234.6 c5.1,3,5.1,7.8,0,10.8l-431.3,249C491.6,497.4,483.2,497.4,478.1,494.4z"/></defs><clipPath id="screen_1_"><use overflow="visible" xlink:href="#screen"/></clipPath><g clip-path="url(#screen_1_)" transform="matrix(1 0 0 1 0 -1.525879e-05)"><image width="425" height="457" overflow="visible" transform="matrix(0.866 0.5 -1 0.5774 575.0197 27)" xlink:href="../../img/425x457/img1.jpg"/></g><use fill="none" stroke="#E3E6F0" stroke-miterlimit="10" overflow="visible" xlink:href="#screen"/></g><path id="speaker" d="M783.1,124.8l-38.7-22.4c-3.6-2.1-4.3-4.6-1.7-5.8c2.6-1.1,7.6-0.4,11.2,1.7l38.7,22.4 c3.6,2.1,4.3,4.6,1.7,5.8C791.7,127.6,786.6,126.9,783.1,124.8z" class="st2"/><ellipse id="touch-id" cx="259" cy="421.2" class="st2" rx="23.9" ry="13.5" transform="matrix(0.9927 -0.121 0.121 0.9927 -49.0616 34.4233)"/></g></svg>