<svg xmlns="http://www.w3.org/2000/svg" xmlns:xlink="http://www.w3.org/1999/xlink" id="Layer_1" x="0" y="0" enable-background="new 0 0 1562.5 976.7" version="1.1" viewBox="0 0 1562.5 976.7" xml:space="preserve"><style type="text/css">.st0{fill:none;stroke:#fff;stroke-width:5.6739;stroke-linecap:round;stroke-miterlimit:10}.st1{fill:#1c6be1}.st2{opacity:.1;fill:#00c9a7;enable-background:new}.st10,.st11,.st12,.st13{fill:none;stroke:#e7eaf3;stroke-width:5.6739;stroke-miterlimit:10}.st3{clip-path:url(#SVGID_2_)}.st3,.st4,.st5,.st6,.st7,.st8,.st9{fill:none;stroke:#e7eaf3;stroke-width:5.6739;stroke-miterlimit:10}.st4{clip-path:url(#SVGID_4_)}.st5{clip-path:url(#SVGID_6_)}.st6{clip-path:url(#SVGID_8_)}.st7{clip-path:url(#SVGID_10_)}.st8{clip-path:url(#SVGID_12_)}.st9{clip-path:url(#SVGID_14_)}.st10{clip-path:url(#SVGID_16_)}.st11{clip-path:url(#SVGID_18_)}.st12{clip-path:url(#SVGID_20_)}.st13{clip-path:url(#SVGID_22_)}.st14{opacity:.5}.st15,.st16{fill:none;stroke-miterlimit:10}.st15{opacity:.5;stroke:#1c6be1;stroke-width:3.4043}.st16{stroke:#e7eaf3;stroke-width:1.3996}</style><g><line x1="2.8" x2="22.5" y1="911.6" y2="892.3" class="st0"/><line x1="22.5" x2="2.8" y1="911.6" y2="892.3" class="st0"/></g><circle cx="1465.2" cy="443.7" r="13.2" class="st1"/><circle cx="1158" cy="9.5" r="9.5" class="st2"/><g><g><g><defs><polygon id="SVGID_1_" points="1340 788.7 1350.9 911.6 1451.9 840.9"/></defs><clipPath id="SVGID_2_"><use overflow="visible" xlink:href="#SVGID_1_"/></clipPath><line x1="1268.1" x2="1398.6" y1="825.4" y2="733.4" class="st3"/></g></g><g><g><defs><polygon id="SVGID_3_" points="1340 788.7 1350.9 911.6 1451.9 840.9"/></defs><clipPath id="SVGID_4_"><use overflow="visible" xlink:href="#SVGID_3_"/></clipPath><line x1="1275.3" x2="1406.2" y1="836" y2="744" class="st4"/></g></g><g><g><defs><polygon id="SVGID_5_" points="1340 788.7 1350.9 911.6 1451.9 840.9"/></defs><clipPath id="SVGID_6_"><use overflow="visible" xlink:href="#SVGID_5_"/></clipPath><line x1="1282.9" x2="1413.7" y1="846.5" y2="754.6" class="st5"/></g></g><g><g><defs><polygon id="SVGID_7_" points="1340 788.7 1350.9 911.6 1451.9 840.9"/></defs><clipPath id="SVGID_8_"><use overflow="visible" xlink:href="#SVGID_7_"/></clipPath><line x1="1290.4" x2="1420.9" y1="857.1" y2="765.2" class="st6"/></g></g><g><g><defs><polygon id="SVGID_9_" points="1340 788.7 1350.9 911.6 1451.9 840.9"/></defs><clipPath id="SVGID_10_"><use overflow="visible" xlink:href="#SVGID_9_"/></clipPath><line x1="1297.6" x2="1428.5" y1="867.7" y2="775.8" class="st7"/></g></g><g><g><defs><polygon id="SVGID_11_" points="1340 788.7 1350.9 911.6 1451.9 840.9"/></defs><clipPath id="SVGID_12_"><use overflow="visible" xlink:href="#SVGID_11_"/></clipPath><line x1="1305.2" x2="1436.1" y1="878.3" y2="786.4" class="st8"/></g></g><g><g><defs><polygon id="SVGID_13_" points="1340 788.7 1350.9 911.6 1451.9 840.9"/></defs><clipPath id="SVGID_14_"><use overflow="visible" xlink:href="#SVGID_13_"/></clipPath><line x1="1312.7" x2="1443.2" y1="888.9" y2="797" class="st9"/></g></g><g><g><defs><polygon id="SVGID_15_" points="1340 788.7 1350.9 911.6 1451.9 840.9"/></defs><clipPath id="SVGID_16_"><use overflow="visible" xlink:href="#SVGID_15_"/></clipPath><line x1="1319.9" x2="1450.8" y1="899.5" y2="807.6" class="st10"/></g></g><g><g><defs><polygon id="SVGID_17_" points="1340 788.7 1350.9 911.6 1451.9 840.9"/></defs><clipPath id="SVGID_18_"><use overflow="visible" xlink:href="#SVGID_17_"/></clipPath><line x1="1327.5" x2="1458.4" y1="910.1" y2="818.2" class="st11"/></g></g><g><g><defs><polygon id="SVGID_19_" points="1340 788.7 1350.9 911.6 1451.9 840.9"/></defs><clipPath id="SVGID_20_"><use overflow="visible" xlink:href="#SVGID_19_"/></clipPath><line x1="1335.1" x2="1465.6" y1="920.7" y2="828.8" class="st12"/></g></g><g><g><defs><polygon id="SVGID_21_" points="1340 788.7 1350.9 911.6 1451.9 840.9"/></defs><clipPath id="SVGID_22_"><use overflow="visible" xlink:href="#SVGID_21_"/></clipPath><line x1="1342.2" x2="1473.1" y1="931.3" y2="839.4" class="st13"/></g></g></g><g class="st14"><g><circle cx="206.2" cy="578.2" r="2.6" class="st1"/><circle cx="206.2" cy="594.1" r="2.6" class="st1"/></g><g><circle cx="188.4" cy="578.2" r="2.6" class="st1"/><circle cx="188.4" cy="594.1" r="2.6" class="st1"/></g><g><circle cx="170.6" cy="578.2" r="2.6" class="st1"/><circle cx="170.6" cy="594.1" r="2.6" class="st1"/></g><g><circle cx="152.8" cy="578.2" r="2.6" class="st1"/></g><g><circle cx="135" cy="578.2" r="2.6" class="st1"/><circle cx="135" cy="594.1" r="2.6" class="st1"/></g><g><circle cx="135" cy="548" r="2.6" class="st1"/><circle cx="135" cy="563.9" r="2.6" class="st1"/></g><g><circle cx="152.8" cy="548" r="2.6" class="st1"/><circle cx="152.8" cy="563.9" r="2.6" class="st1"/></g><g><circle cx="170.6" cy="563.9" r="2.6" class="st1"/></g><g><circle cx="117.3" cy="594.1" r="2.6" class="st1"/></g></g><circle cx="113.6" cy="91.3" r="11" class="st15"/><path d="M666.7,94.2l-4.5-3.4c-1.5-1.1-1.5-3-0.8-4.2l3.4-4.5c1.1-1.5,3-1.5,4.2-0.8l4.5,3.4c1.5,1.1,1.5,3,0.8,4.2	l-3.4,4.5C670.1,94.9,668.2,95.3,666.7,94.2z" class="st16"/></svg>